<?xml version="1.0" encoding="UTF-8"?>
<svg id="logo" xmlns="http://www.w3.org/2000/svg" viewBox="0 0 41.19 41.19">
  <defs>
    <style>
      .cls-1-24-1-24-1 {
        fill: #fff;
      }

      .cls-2-24-1 {
        fill: #ff319d;
      }
    </style>
  </defs>
  <circle class="cls-2-24-1" cx="20.59" cy="20.59" r="20.59"/>
  <g>
    <path class="cls-1-24-1-24-1" d="m5.9,32.06v-3.43l8.15-10.79c.42-.55.75-1.12.98-1.7.23-.58.35-1.13.35-1.65v-.03c0-.79-.24-1.4-.72-1.83-.48-.43-1.16-.65-2.05-.65s-1.53.26-2.06.79c-.53.52-.85,1.27-.96,2.23v.02h-3.98v-.02c.23-2.14.96-3.79,2.19-4.96,1.23-1.17,2.82-1.76,4.78-1.76,2.16,0,3.83.53,5.02,1.6s1.78,2.58,1.78,4.54v.02c0,.95-.18,1.92-.54,2.9-.36.98-.86,1.89-1.5,2.74l-6.32,8.29h8.49v3.71H5.9Z"/>
    <path class="cls-1-24-1-24-1" d="m22.09,28.44v-3.47l7.58-16.46h4.21l-7.39,16.26h11.06v3.66h-15.47Zm9.83,3.63v-13.86h3.82v13.86h-3.82Z"/>
  </g>
</svg>