<?xml version="1.0" encoding="UTF-8"?>
<svg id="logo" xmlns="http://www.w3.org/2000/svg" viewBox="0 0 41.19 41.19">
  <defs>
    <style>
      .cls-1-25-1-25-1 {
        fill: #fff;
      }

      .cls-2-25-1 {
        fill: #1c45b7;
      }
    </style>
  </defs>
  <circle class="cls-2-25-1" cx="20.59" cy="20.59" r="20.59"/>
  <g>
    <path class="cls-1-25-1-25-1" d="m5.82,32.06v-3.43l8.15-10.79c.42-.55.75-1.12.98-1.7.23-.58.35-1.13.35-1.65v-.03c0-.79-.24-1.4-.72-1.83s-1.16-.65-2.05-.65-1.53.26-2.06.79-.85,1.27-.96,2.23v.02h-3.98v-.02c.23-2.14.96-3.79,2.19-4.96,1.23-1.17,2.82-1.76,4.78-1.76,2.16,0,3.83.53,5.02,1.6,1.19,1.07,1.78,2.58,1.78,4.53v.02c0,.95-.18,1.92-.54,2.9s-.86,1.89-1.5,2.74l-6.32,8.29h8.49v3.71H5.82Z"/>
    <path class="cls-1-25-1-25-1" d="m30.05,32.3c-1.83,0-3.36-.56-4.58-1.69s-1.94-2.72-2.16-4.79v-.02h3.87v.02c.11.86.42,1.54.92,2.02.51.48,1.17.72,1.98.72.92,0,1.63-.31,2.13-.92.5-.61.75-1.47.75-2.57v-1.98c0-1.1-.24-1.96-.72-2.56s-1.16-.91-2.03-.91c-.6,0-1.15.16-1.64.49-.49.32-.88.78-1.16,1.36h-3.58v-12.97h12.33v3.71h-8.46v4.73c.38-.33.84-.59,1.38-.78s1.08-.28,1.64-.28c1.94,0,3.45.63,4.52,1.89,1.07,1.26,1.6,3.03,1.6,5.32v1.98c0,2.3-.59,4.08-1.77,5.34-1.18,1.26-2.85,1.89-5.01,1.89Z"/>
  </g>
</svg>