<?xml version="1.0" encoding="UTF-8"?>
<svg id="logo" xmlns="http://www.w3.org/2000/svg" viewBox="0 0 41.19 41.19">
  <defs>
    <style>
      .cls-1-S3-1-S3-1 {
        fill: #fff;
      }

      .cls-2-S3-1 {
        fill: #f4abce;
      }
    </style>
  </defs>
  <circle class="cls-2-S3-1" cx="20.59" cy="20.59" r="20.59"/>
  <g>
    <path class="cls-1-S3-1-S3-1" d="m13.18,32.28c-1.06,0-2.08-.1-3.05-.31-.97-.21-1.88-.51-2.73-.92-.85-.4-1.63-.9-2.35-1.5l1.92-2.89c.85.72,1.8,1.26,2.85,1.63s2.17.55,3.35.55c1.47,0,2.62-.26,3.43-.79.81-.52,1.22-1.27,1.22-2.22v-.02c0-.74-.2-1.3-.61-1.7-.41-.39-.95-.68-1.61-.87s-1.39-.34-2.18-.48c-.84-.13-1.69-.29-2.55-.49-.86-.2-1.66-.5-2.38-.92s-1.3-1.02-1.74-1.8c-.44-.78-.66-1.82-.66-3.13h0c0-2.11.69-3.74,2.08-4.89s3.35-1.73,5.88-1.73c1.18,0,2.36.19,3.54.58,1.18.39,2.3.96,3.38,1.72l-1.76,2.98c-.85-.62-1.71-1.08-2.59-1.38-.88-.31-1.74-.46-2.57-.46-1.39,0-2.47.25-3.23.76s-1.14,1.23-1.14,2.16h0c0,.78.22,1.37.67,1.76.45.4,1.03.69,1.76.89.72.19,1.5.37,2.34.54.83.16,1.65.36,2.47.59s1.57.57,2.25,1c.68.43,1.22,1.03,1.63,1.79.41.76.61,1.75.61,2.97v.03c0,2.08-.72,3.69-2.16,4.82-1.44,1.14-3.46,1.7-6.08,1.7Z"/>
    <path class="cls-1-S3-1-S3-1" d="m30.81,32.28c-1.28,0-2.41-.23-3.4-.7-.98-.46-1.77-1.14-2.36-2.02-.59-.88-.95-1.96-1.07-3.22h3.71c.12.82.43,1.43.94,1.83.5.4,1.16.61,1.95.61.91,0,1.61-.24,2.1-.73.49-.49.74-1.18.74-2.08v-.59c0-.97-.22-1.72-.66-2.25-.44-.53-1.07-.79-1.88-.79h-1.71v-3.45h1.71c.7,0,1.23-.23,1.61-.69.38-.46.57-1.1.57-1.93v-.53c0-.78-.2-1.38-.61-1.79-.41-.42-.99-.63-1.73-.63-.68,0-1.25.21-1.72.64-.47.43-.79,1.08-.96,1.95h-3.69c.25-1.94.96-3.44,2.12-4.5,1.16-1.06,2.6-1.59,4.33-1.59,1.92,0,3.4.5,4.46,1.5,1.05,1,1.58,2.41,1.58,4.22v.51c0,1.06-.28,1.98-.83,2.76-.56.78-1.34,1.37-2.36,1.75,1.13.25,2,.83,2.63,1.72.62.89.93,2.03.93,3.41v.52c0,1.93-.56,3.42-1.67,4.48-1.12,1.06-2.69,1.59-4.71,1.59Z"/>
  </g>
</svg>