<?xml version="1.0" encoding="UTF-8"?>
<svg id="logo" xmlns="http://www.w3.org/2000/svg" viewBox="0 0 41.19 41.19">
  <defs>
    <style>
      .cls-1-S9-1-S9-1 {
        fill: #fff;
      }

      .cls-2-S9-1 {
        fill: #ba9f2f;
      }
    </style>
  </defs>
  <circle class="cls-2-S9-1" cx="20.59" cy="20.59" r="20.59"/>
  <g>
    <path class="cls-1-S9-1-S9-1" d="m13.35,32.28c-1.06,0-2.08-.1-3.05-.31s-1.88-.51-2.73-.92c-.85-.4-1.63-.9-2.35-1.5l1.92-2.89c.85.72,1.8,1.26,2.85,1.63,1.05.37,2.17.55,3.35.55,1.47,0,2.62-.26,3.43-.79.81-.52,1.22-1.27,1.22-2.23h0c0-.75-.2-1.32-.61-1.71-.41-.39-.95-.68-1.61-.87s-1.39-.35-2.18-.48c-.84-.13-1.69-.3-2.55-.49-.86-.2-1.65-.5-2.38-.92-.72-.42-1.3-1.02-1.74-1.8-.44-.78-.66-1.82-.66-3.13h0c0-2.11.69-3.74,2.08-4.89s3.35-1.72,5.88-1.72c1.18,0,2.36.19,3.54.58s2.31.96,3.38,1.72l-1.76,2.98c-.85-.62-1.71-1.08-2.59-1.38s-1.74-.46-2.57-.46c-1.39,0-2.47.25-3.23.76s-1.14,1.23-1.14,2.16h0c0,.78.22,1.36.67,1.76.45.4,1.03.69,1.76.89s1.5.37,2.34.54c.83.16,1.65.36,2.47.59.82.23,1.57.57,2.25,1,.68.43,1.22,1.03,1.63,1.79.41.76.61,1.75.61,2.97v.03c0,2.08-.72,3.69-2.16,4.82-1.44,1.13-3.46,1.7-6.08,1.7Z"/>
    <path class="cls-1-S9-1-S9-1" d="m27.62,32.06l5.16-10.93.36.54c-.26.47-.65.82-1.17,1.03-.51.21-1.11.32-1.79.32-1.62,0-2.94-.59-3.94-1.76-1-1.18-1.5-2.74-1.5-4.69h0c0-2.15.55-3.81,1.65-4.99,1.1-1.17,2.65-1.76,4.65-1.76s3.54.59,4.64,1.78c1.09,1.19,1.64,2.86,1.64,5.03v.02c0,.9-.14,1.86-.42,2.9-.28,1.04-.66,2.06-1.12,3.08l-4.31,9.43h-3.86Zm3.44-12.38c.85,0,1.5-.28,1.97-.85.46-.56.7-1.36.7-2.38h0c0-1.01-.23-1.78-.7-2.32-.46-.54-1.12-.81-1.97-.81s-1.52.27-1.98.82c-.46.54-.7,1.32-.7,2.32v.02c0,1.02.23,1.81.7,2.37.46.56,1.12.84,1.98.84Z"/>
  </g>
</svg>