<?xml version="1.0" encoding="UTF-8"?>
<svg id="logo" xmlns="http://www.w3.org/2000/svg" xmlns:xlink="http://www.w3.org/1999/xlink" viewBox="0 0 800 480">
  <defs>
    <style>
      .cls-1 {
        fill: url(#_未命名的渐变_22);
      }
    </style>
    <linearGradient id="_未命名的渐变_22" data-name="未命名的渐变 22" x1="0" y1="374" x2="800" y2="374" gradientUnits="userSpaceOnUse">
      <stop offset="0" stop-color="#adadad"/>
      <stop offset=".5" stop-color="#fff"/>
      <stop offset="1" stop-color="#adadad"/>
    </linearGradient>
  </defs>
  <rect class="cls-1" x="0" y="362" width="800" height="24"/>
  <g>
    <path d="m263.41,365.01c1.35.05,2.08.18,2.19.39-.05.16-.13.31-.23.47-.1.26-.16.5-.16.7v4.77c.21,0,.57-.03,1.09-.08.89-.05,1.48-.1,1.8-.16v1.64h-1.25c-.52,0-1.07-.03-1.64-.08v6.25l2.5-.55.08,1.48c-1.56.42-4.61,1.15-9.14,2.19l-.62-1.72,1.95-.39v-9.61c-.05-.31-.08-.62-.08-.94v-.78c1.35.16,2.06.31,2.11.47,0,.1-.05.21-.16.31-.16.21-.23.5-.23.86v9.3l1.88-.31v-12.5c-.05-.21-.08-.47-.08-.78v-.94Zm5.16-.23c1.46.21,2.19.39,2.19.55-.05.1-.13.23-.23.39-.16.31-.23.55-.23.7v6.17c1.67-.94,3.1-1.98,4.3-3.12,1.04.94,1.54,1.56,1.48,1.88,0,.05-.05.08-.16.08-.36.05-.68.16-.94.31-1.2.62-2.76,1.46-4.69,2.5v5.55c-.05.62.29.94,1.02.94,1.3,0,2.14-.05,2.5-.16.26-.1.47-.94.62-2.5.62.68,1.28,1.07,1.95,1.17-.42,1.98-.99,2.99-1.72,3.05-1.88.05-3.49,0-4.84-.16-.94-.05-1.33-.52-1.17-1.41v-14.3c-.05-.26-.08-.55-.08-.86v-.78Z"/>
    <path d="m283.88,371.18c1.3.26,1.95.44,1.95.55s-.05.21-.16.31c-.16.31-.26.6-.31.86-.16.52-.44,1.56-.86,3.12-.31,1.25-.52,2.08-.62,2.5l2.27-.39v1.48c-2.03.52-4.5.99-7.42,1.41l-.39-1.72,4.14-.55c.78-2.97,1.25-5.49,1.41-7.58Zm3.12-2.42v1.72h-1.02c-.89-.05-1.46-.08-1.72-.08h-3.2c.16,0-.36.03-1.56.08h-.94v-1.72c.26.05,1.09.08,2.5.08h4.45c.73-.05,1.22-.08,1.48-.08Zm-5.7,2.73c.21,1.35.42,3.2.62,5.55l-1.64.31c-.05-1.2-.13-2.21-.23-3.05-.1-.94-.23-1.82-.39-2.66l1.64-.16Zm1.95-6.25c.26.68.57,1.62.94,2.81l-1.64.47c-.26-.99-.57-1.93-.94-2.81l1.64-.47Zm6.09-.47c1.2.05,1.85.1,1.95.16-.26.37-.39.76-.39,1.17v2.42h3.44l1.95-.08v1.56l-1.88-.08h-3.52v3.75h2.11c1.09,0,1.64-.03,1.64-.08-.1.73-.13,1.28-.08,1.64v5.16c0,.68.03,1.33.08,1.95h-1.64v-.62c0-.26.03-.52.08-.78h-4.84c-.05.62-.03,1.09.08,1.41h-1.72v-.78c.05-.21.08-.57.08-1.09v-5.31c-.05-.26-.08-.52-.08-.78v-.78c0,.05.57.08,1.72.08h1.09v-7.11l-.08-1.8Zm-1.09,10.31v4.53h4.77v-4.53h-4.77Z"/>
    <path d="m298.18,365.64c.26.05.81.1,1.64.16h13.67c.83,0,1.8-.05,2.89-.16v1.8c-.89-.05-1.85-.1-2.89-.16h-.7v13.67c-.21.83-1.43,1.28-3.67,1.33-.1-.68-.39-1.38-.86-2.11,1.82.37,2.73.23,2.73-.39v-12.5h-9.06c-1.56.05-2.81.1-3.75.16v-1.8Zm2.58,3.98c.68.1,1.3.13,1.88.08h3.44c.73.05,1.43.03,2.11-.08-.05.68-.08,1.25-.08,1.72v5.23c0,.68.03,1.2.08,1.56h-2.03v-.08c.1-.52.16-1.04.16-1.56h-3.67v.7c0,.78.05,1.38.16,1.8h-2.03v-.7c0-.26.03-.55.08-.86v-6.88c-.05-.31-.08-.62-.08-.94Zm1.88,1.64v3.67h3.75v-3.67h-3.75Z"/>
    <path d="m322.47,370.17h-.16v3.2l1.88-1.09.23,1.72-2.19,1.02v5.39c0,.68-.21,1.12-.62,1.33-.31.26-1.15.47-2.5.62-.1-.57-.34-1.15-.7-1.72,1.72.16,2.47-.16,2.27-.94v-3.98l-2.11,1.17-.62-1.72,2.81-1.17v-3.83h-.31c-.73,0-1.41.05-2.03.16h-.23v-1.72l.16.08c.26.05.96.08,2.11.08h.31v-2.27c-.05-.52-.08-1.04-.08-1.56v-.23c1.25.16,1.93.29,2.03.39,0,.1-.05.21-.16.31-.21.26-.29.57-.23.94v2.5h.16c.78,0,1.41-.05,1.88-.16v1.64c-.47-.05-1.09-.1-1.88-.16Zm5.78-5.62c.78.26,1.38.52,1.8.78,0,.05-.08.13-.23.23-.42.37-.78.78-1.09,1.25h3.05c1.15.05,1.88.03,2.19-.08-.16.37-.94,1.51-2.34,3.44-.1.16-.18.26-.23.31h3.28c.21-.05.34-.08.39-.08-.1.42-.16,1.07-.16,1.95v3.28c.89,0,1.48-.03,1.8-.08.05-.05.1-.08.16-.08v1.64h-.23c-.42-.1-.99-.16-1.72-.16h-3.28c.68,2.29,2.27,3.54,4.77,3.75-.57.57-.96,1.22-1.17,1.95-2.86-1.09-4.43-2.97-4.69-5.62-.73,2.5-2.76,4.38-6.09,5.62-.21-.47-.68-1.02-1.41-1.64,3.12-.36,5.08-1.72,5.86-4.06h-3.36c-.62,0-1.22.05-1.8.16h-.16v-1.64l.16.08c.26.05.86.08,1.8.08v-3.36c0-.99-.05-1.61-.16-1.88.16.1.86.13,2.11.08h2.11c.83-.94,1.43-1.77,1.8-2.5h-3.28c-.42.52-1.09,1.3-2.03,2.34-.73-.47-1.28-.78-1.64-.94,1.56-.99,2.84-2.6,3.83-4.84Zm1.09,7.19h-2.34v3.91h2.19c.05-.73.08-1.56.08-2.5,0-.57.03-1.04.08-1.41Zm1.48,0c0,1.88-.03,3.18-.08,3.91h2.58v-3.91h-2.5Z"/>
    <path d="m352.47,364.85c.78,1.09,1.15,1.75,1.09,1.95-.1.1-.29.13-.55.08-.36-.1-.65-.16-.86-.16-.47.05-1.17.13-2.11.23-.57.05-1.28.1-2.11.16v1.72h5c.89,0,1.8-.05,2.73-.16v1.64c-.99-.05-1.85-.1-2.58-.16h-5.16v3.67c1.41,3.59,4.17,5.52,8.28,5.78-.68.62-1.17,1.25-1.48,1.88-3.54-.99-5.81-2.76-6.8-5.31v3.44c0,1.67.03,2.55.08,2.66.05.1.08.18.08.23h-1.8c-.05-.05-.05-.13,0-.23.1-.21.18-1.09.23-2.66v-3.44c-1.56,2.71-3.93,4.61-7.11,5.7-.42-.62-.91-1.15-1.48-1.56,2.71-.36,4.92-1.56,6.64-3.59h-1.48c0-.26.05-.68.16-1.25-.83.47-1.77.91-2.81,1.33-.21.1-.42.21-.62.31l-.7-1.56c1.3-.26,2.68-.7,4.14-1.33v-1.02h-1.41c-.73.05-1.54.1-2.42.16v-1.48c.94.1,1.72.16,2.34.16h1.48c-.05-.1-.08-.26-.08-.47v-.7c1.2.1,1.8.21,1.8.31-.05.05-.1.13-.16.23-.1.21-.16.42-.16.62v2.66c-.05.83,0,1.41.16,1.72.83-1.09,1.41-1.9,1.72-2.42v-3.83h-5c-.78.05-1.77.1-2.97.16v-1.64c1.09.1,2.06.16,2.89.16h5.08v-1.64c-.78.05-2.73.21-5.86.47-.16-.62-.39-1.17-.7-1.64,5.42.1,9.58-.29,12.5-1.17Zm-2.89,6.02c1.04.05,1.67.1,1.88.16,0,.05-.05.16-.16.31-.16.37-.23.78-.23,1.25.89-.36,1.85-.86,2.89-1.48.62.73.96,1.17,1.02,1.33-.05.05-.21.1-.47.16-.99.21-2.11.55-3.36,1.02v.78c-.16.73.26,1.04,1.25.94,1.04.16,1.56-.47,1.56-1.88.52.47,1.04.76,1.56.86-.31,1.72-1.17,2.5-2.58,2.34h-1.33c-1.35.05-2-.6-1.95-1.95v-2.5c0-.62-.03-1.07-.08-1.33Z"/>
    <path d="m387.08,374.93v5.78h-1.95v-5.78l-5.39-8.52h2.27l4.06,6.88,4.14-6.88h2.27l-5.39,8.52Z"/>
    <path d="m393.41,375.48c.21-3.54,1.82-5.39,4.84-5.55,2.97.16,4.58,2.01,4.84,5.55-.26,3.49-1.88,5.29-4.84,5.39-3.02-.1-4.64-1.9-4.84-5.39Zm1.8,0c.1,2.6,1.12,3.93,3.05,3.98,1.88-.05,2.89-1.38,3.05-3.98-.16-2.55-1.17-3.88-3.05-3.98-1.93.1-2.94,1.43-3.05,3.98Z"/>
    <path d="m413.57,380.71h-1.64v-1.48l-.08-.08c-.73,1.2-1.85,1.77-3.36,1.72-2.24-.1-3.36-1.15-3.36-3.12v-7.5h1.8v6.95c0,1.56.68,2.34,2.03,2.34,1.77-.05,2.73-1.22,2.89-3.52v-5.78h1.72v10.47Z"/>
    <path d="m421.69,380.71v-10.47h1.72v1.48c.78-1.2,1.85-1.8,3.2-1.8,1.15,0,2.03.55,2.66,1.64,0,.05.03.08.08.08.89-1.15,1.95-1.72,3.2-1.72,2.14.16,3.23,1.35,3.28,3.59v7.19h-1.8v-6.72c0-1.61-.65-2.42-1.95-2.42-1.51.16-2.32,1.09-2.42,2.81v6.33h-1.8v-7.19c-.05-1.25-.6-1.9-1.64-1.95-1.82.16-2.73,1.3-2.73,3.44v5.7h-1.8Z"/>
    <path d="m439.89,373.45h-1.64c.05-2.29,1.48-3.46,4.3-3.52,2.5.16,3.78,1.15,3.83,2.97v6.02c0,.47.21.68.62.62h.23c.16-.05.29-.08.39-.08v1.25h-.47c-.21.05-.39.08-.55.08-1.25,0-1.85-.49-1.8-1.48-1.04,1.04-2.32,1.56-3.83,1.56-2.08-.1-3.18-1.07-3.28-2.89,0-1.88,1.07-2.97,3.2-3.28l2.89-.31c.62-.05.94-.47.94-1.25-.05-1.09-.89-1.67-2.5-1.72-1.46.05-2.24.73-2.34,2.03Zm4.77,3.67v-1.72c-.42.26-1.38.5-2.89.7-1.51.16-2.24.7-2.19,1.64-.05,1.2.55,1.8,1.8,1.8,1.98-.1,3.07-.91,3.28-2.42Z"/>
    <path d="m453.18,378.84l2.73-8.59h1.95c-.42,1.04-.81,2.08-1.17,3.12-1.09,3.12-1.95,5.5-2.58,7.11-.94,2.13-1.59,3.36-1.95,3.67-.31.42-1.04.62-2.19.62-.26-.05-.5-.1-.7-.16v-1.56h.08c.31.16.62.23.94.23.68.26,1.3-.55,1.88-2.42l-3.83-10.62h1.95l2.81,8.59h.08Z"/>
    <path d="m468.8,371.73h-1.72v6.8c-.05.62.29.91,1.02.86h.7v1.33h-1.33c-1.51,0-2.24-.68-2.19-2.03v-6.95h-1.33v-1.48h1.33v-2.89h1.8v2.89h1.72v1.48Z"/>
    <path d="m472.47,374.62v6.09h-1.8v-10.47h1.72v1.8c.78-1.41,1.77-2.11,2.97-2.11.05,0,.13.03.23.08h.23v1.88h-.7c-1.67.16-2.55,1.07-2.66,2.73Z"/>
    <path d="m478.64,373.45h-1.64c.05-2.29,1.48-3.46,4.3-3.52,2.5.16,3.78,1.15,3.83,2.97v6.02c0,.47.21.68.62.62h.23c.16-.05.29-.08.39-.08v1.25h-.47c-.21.05-.39.08-.55.08-1.25,0-1.85-.49-1.8-1.48-1.04,1.04-2.32,1.56-3.83,1.56-2.08-.1-3.18-1.07-3.28-2.89,0-1.88,1.07-2.97,3.2-3.28l2.89-.31c.62-.05.94-.47.94-1.25-.05-1.09-.89-1.67-2.5-1.72-1.46.05-2.24.73-2.34,2.03Zm4.77,3.67v-1.72c-.42.26-1.38.5-2.89.7-1.51.16-2.24.7-2.19,1.64-.05,1.2.55,1.8,1.8,1.8,1.98-.1,3.07-.91,3.28-2.42Z"/>
    <path d="m496.61,373.6v7.11h-1.72v-6.41c.05-1.88-.7-2.79-2.27-2.73-1.82.16-2.73,1.3-2.73,3.44v5.7h-1.8v-10.47h1.72v1.48c.78-1.15,1.85-1.74,3.2-1.8,2.34.1,3.54,1.33,3.59,3.67Z"/>
    <path d="m506.85,373.29h-1.72c0-1.15-.83-1.74-2.5-1.8-1.35.1-2.03.6-2.03,1.48-.16.73.47,1.2,1.88,1.41l1.8.39c1.98.47,2.94,1.41,2.89,2.81-.16,2.08-1.51,3.18-4.06,3.28-3.02,0-4.53-1.17-4.53-3.52h1.64c.1,1.46,1.07,2.19,2.89,2.19,1.46-.05,2.24-.62,2.34-1.72.05-.62-.62-1.12-2.03-1.48l-2.11-.47c-1.67-.36-2.47-1.2-2.42-2.5.1-2.13,1.43-3.28,3.98-3.44,2.45.05,3.78,1.17,3.98,3.36Z"/>
    <path d="m513.18,371.73h-1.8v8.98h-1.72v-8.98h-1.41v-1.48h1.41v-1.72c0-1.51.89-2.29,2.66-2.34.26,0,.55.03.86.08v1.48h-.78c-.73,0-1.07.42-1.02,1.25v1.25h1.8v1.48Z"/>
    <path d="m521.93,377.43h1.72c-.26,1.25-.89,2.21-1.88,2.89-.62.37-1.56.55-2.81.55-3.02-.1-4.58-1.8-4.69-5.08.1-3.8,1.77-5.75,5-5.86,2.92.1,4.43,2.16,4.53,6.17h-7.66c0,2.29,1.02,3.44,3.05,3.44,1.41-.05,2.32-.75,2.73-2.11Zm-5.78-2.73h5.86c-.21-2.08-1.2-3.12-2.97-3.12-1.77.21-2.73,1.25-2.89,3.12Z"/>
    <path d="m527.86,374.62v6.09h-1.8v-10.47h1.72v1.8c.78-1.41,1.77-2.11,2.97-2.11.05,0,.13.03.23.08h.23v1.88h-.7c-1.67.16-2.55,1.07-2.66,2.73Z"/>
    <path d="m541.85,371.73h-1.72v6.8c-.05.62.29.91,1.02.86h.7v1.33h-1.33c-1.51,0-2.24-.68-2.19-2.03v-6.95h-1.33v-1.48h1.33v-2.89h1.8v2.89h1.72v1.48Z"/>
    <path d="m542.94,375.48c.21-3.54,1.82-5.39,4.84-5.55,2.97.16,4.58,2.01,4.84,5.55-.26,3.49-1.88,5.29-4.84,5.39-3.02-.1-4.64-1.9-4.84-5.39Zm1.8,0c.1,2.6,1.12,3.93,3.05,3.98,1.88-.05,2.89-1.38,3.05-3.98-.16-2.55-1.17-3.88-3.05-3.98-1.93.1-2.94,1.43-3.05,3.98Z"/>
  </g>
</svg>