<?xml version="1.0" encoding="UTF-8"?>
<svg id="logo" xmlns="http://www.w3.org/2000/svg" viewBox="0 0 55.28 41.19">
  <g>
    <path d="m3,12.71h2.83v-5.08h1.89v5.08h2.7v1.78h-2.7v3.86c1.07-.12,2.18-.26,3.32-.4-.09.7-.15,1.33-.19,1.89-1.05.12-2.1.23-3.13.35v6.72h-1.89v-6.49c-1.75.22-3.47.44-5.18.66l-.22-2c1.67-.14,3.47-.32,5.4-.53v-4.06H1.03v-1.78c.74-2.13,1.44-4.41,2.12-6.83H.65v-1.78h3c.36-1.34.71-2.73,1.05-4.16l2,.41c-.36,1.29-.71,2.54-1.07,3.75h5.14v1.78h-5.66c-.72,2.44-1.43,4.71-2.12,6.83Zm7.07,11.09h7.5v-6.78h-5.53v-1.89h12.96v1.89h-5.43v6.78h7.45v1.89H10.07v-1.89Zm1.67-21.7h12.53v1.84c-1.02,1.63-2.25,3.14-3.7,4.52,2.38,1.3,4.66,2.6,6.83,3.93l-1.27,1.78c-2.47-1.66-4.82-3.13-7.03-4.41-2.04,1.66-4.44,3.11-7.19,4.36-.43-.65-.89-1.25-1.38-1.81,5-2.03,8.79-4.81,11.37-8.31h-10.15v-1.89Z"/>
    <path d="m31.21,12.74h2.92v-5.05h2.05v5.05h3.1v2h-3.1v3.48c1.01-.2,2.04-.4,3.1-.62-.04.83-.05,1.52-.05,2.08-.99.18-2.01.37-3.05.57v6.72h-2.05v-6.32c-1.82.36-3.72.75-5.7,1.16l-.46-2.16c1.96-.29,4.01-.63,6.15-1.03v-3.89h-5.18v-1.7c.77-2.23,1.51-4.62,2.21-7.18h-2.81v-1.89h3.29c.31-1.21.61-2.45.92-3.73l2.19.43c-.31,1.13-.6,2.23-.89,3.29h5.35v1.89h-5.88c-.72,2.5-1.42,4.8-2.11,6.88Zm8.1-6.48h3.05V.35h2.11v5.91h6.13v16.66c0,.7.23,1.05.7,1.05h.35c.5,0,.82-.5.95-1.51.16-1.17.3-2.79.4-4.86.61.31,1.26.56,1.94.76-.11,1.57-.27,3.13-.49,4.7-.29,1.98-1.13,2.97-2.54,2.97h-1.24c-1.42,0-2.13-.95-2.13-2.86v-14.9h-4.08c-.04,5.29-.31,9.05-.81,11.28-.58,2.81-1.78,5.33-3.62,7.56-.52-.63-1.11-1.21-1.75-1.73,1.67-1.73,2.8-3.98,3.37-6.75.43-1.84.67-5.29.7-10.37h-3.05v-2Z"/>
  </g>
  <g>
    <path d="m8.63,39.37c-.75.44-1.69.66-2.81.66-1.46,0-2.62-.52-3.49-1.55-.87-1.03-1.31-2.4-1.31-4.1,0-1.83.49-3.29,1.47-4.41.98-1.11,2.22-1.67,3.73-1.67.97,0,1.77.15,2.41.46v1.53c-.73-.45-1.52-.67-2.39-.67-1.13,0-2.06.42-2.77,1.26-.71.84-1.07,1.98-1.07,3.41s.33,2.44,1,3.23c.66.8,1.54,1.2,2.61,1.2,1.01,0,1.88-.25,2.62-.76v1.41Z"/>
    <path d="m10.66,39.84v-11.35h2.98c.89,0,1.61.24,2.14.71.53.48.8,1.11.8,1.89,0,.63-.16,1.18-.48,1.66s-.75.82-1.31,1.02v.03c.69.09,1.24.38,1.66.88.41.5.62,1.12.62,1.89,0,.98-.31,1.77-.94,2.37-.63.6-1.43.9-2.41.9h-3.06Zm1.31-10.06v3.55h1.19c.63,0,1.13-.17,1.49-.52.36-.34.54-.82.54-1.43,0-1.07-.64-1.6-1.92-1.6h-1.31Zm0,4.83v3.96h1.58c.69,0,1.22-.18,1.59-.53.37-.35.56-.85.56-1.48,0-1.3-.79-1.95-2.37-1.95h-1.36Z"/>
    <path d="m19.09,39.84v-11.35h2.9c1.54,0,2.82.5,3.84,1.5,1.02,1,1.53,2.34,1.53,4.03s-.51,3.17-1.53,4.23c-1.02,1.06-2.34,1.59-3.95,1.59h-2.79Zm1.31-10.04v8.74h1.48c1.29,0,2.3-.39,3.02-1.18.72-.79,1.09-1.89,1.09-3.3s-.37-2.48-1.12-3.19c-.74-.71-1.72-1.07-2.93-1.07h-1.54Z"/>
    <path d="m38.66,39.84h-5.36v-11.35h1.31v10.05h4.05v1.3Z"/>
    <path d="m47.62,39.84h-1.55l-1.69-3.15c-.34-.63-.65-1.06-.93-1.29-.28-.23-.61-.34-1-.34h-.95v4.78h-1.31v-11.35h3.1c.99,0,1.76.27,2.32.8.56.53.84,1.28.84,2.23,0,1.57-.75,2.59-2.26,3.06v.04c.28.13.52.32.72.56s.47.66.79,1.25l1.9,3.4Zm-6.11-10.06v4.01h1.55c.6,0,1.08-.2,1.46-.59s.56-.9.56-1.54c0-.59-.17-1.05-.51-1.38-.34-.33-.84-.5-1.49-.5h-1.57Z"/>
    <path d="m54.74,29.79h-2.93v10.04h-1.32v-10.04h-2.92v-1.3h7.17v1.3Z"/>
  </g>
</svg>