<?xml version="1.0" encoding="UTF-8"?>
<svg id="logo" xmlns="http://www.w3.org/2000/svg" viewBox="0 0 41.19 41.19">
  <defs>
    <style>
      .cls-1-R3-1-R3-1 {
        fill: #fff;
      }

      .cls-2-R3-1 {
        fill: #f4abce;
      }
    </style>
  </defs>
  <circle class="cls-2-R3-1" cx="20.59" cy="20.59" r="20.59"/>
  <g>
    <path class="cls-1-R3-1-R3-1" d="m4.78,32.05V10.03h3.62v22.02h-3.62Zm1.5-9.08v-3.47h7.58c.78,0,1.4-.27,1.86-.83.46-.55.7-1.28.71-2.19,0-.9-.23-1.62-.7-2.17-.47-.55-1.09-.82-1.87-.82h-7.58v-3.47h7.69c1.25,0,2.34.27,3.28.8.93.53,1.66,1.29,2.18,2.25s.78,2.1.78,3.41-.26,2.44-.79,3.41c-.52.97-1.25,1.72-2.18,2.26-.93.54-2.02.81-3.27.81h-7.69Zm10.51,9.08l-5.19-9.76,3.75-.7,5.78,10.46h-4.34Z"/>
    <path class="cls-1-R3-1-R3-1" d="m30.45,32.28c-1.28,0-2.41-.23-3.4-.7-.98-.46-1.77-1.14-2.36-2.02-.59-.88-.95-1.96-1.07-3.22h3.71c.12.82.43,1.43.94,1.83.5.4,1.16.61,1.95.61.91,0,1.61-.24,2.1-.73s.74-1.18.74-2.08v-.59c0-.97-.22-1.72-.66-2.25-.44-.53-1.07-.79-1.88-.79h-1.71v-3.45h1.71c.7,0,1.23-.23,1.61-.69.38-.46.57-1.1.57-1.93v-.53c0-.78-.21-1.38-.61-1.79-.41-.42-.99-.63-1.73-.63-.68,0-1.25.21-1.72.64-.47.43-.79,1.08-.96,1.95h-3.69c.25-1.94.96-3.44,2.12-4.5,1.16-1.06,2.6-1.59,4.33-1.59,1.92,0,3.4.5,4.46,1.5,1.05,1,1.58,2.41,1.58,4.22v.51c0,1.06-.28,1.98-.83,2.76-.55.78-1.34,1.37-2.36,1.75,1.13.25,2.01.83,2.63,1.72.62.89.93,2.03.93,3.41v.52c0,1.93-.56,3.42-1.67,4.48-1.12,1.06-2.69,1.59-4.71,1.59Z"/>
  </g>
</svg>