<?xml version="1.0" encoding="UTF-8"?>
<svg id="logo" xmlns="http://www.w3.org/2000/svg" viewBox="0 0 41.19 41.19">
  <defs>
    <style>
      .cls-1-R9-1 {
        fill: #efd61d;
      }

      .cls-2-R9-1-R9-1 {
        fill: #fff;
      }
    </style>
  </defs>
  <circle class="cls-1-R9-1" cx="20.59" cy="20.59" r="20.59"/>
  <g>
    <path class="cls-2-R9-1-R9-1" d="m5.02,32.06V10.03h3.62v22.02h-3.62Zm1.5-9.08v-3.47h7.58c.78,0,1.4-.28,1.86-.83.46-.55.7-1.28.71-2.19,0-.9-.23-1.62-.7-2.17-.47-.55-1.09-.83-1.87-.83h-7.58v-3.47h7.69c1.25,0,2.34.27,3.28.8s1.66,1.29,2.18,2.26.78,2.1.78,3.41-.26,2.44-.79,3.41c-.53.97-1.25,1.72-2.18,2.26-.93.54-2.02.81-3.27.81h-7.69Zm10.5,9.08l-5.19-9.76,3.75-.7,5.78,10.46h-4.34Z"/>
    <path class="cls-2-R9-1-R9-1" d="m27.18,32.06l5.16-10.93.36.54c-.26.47-.65.82-1.17,1.03-.52.21-1.11.32-1.79.32-1.62,0-2.94-.59-3.94-1.76-1-1.18-1.5-2.74-1.5-4.69h0c0-2.15.55-3.81,1.65-4.99,1.1-1.17,2.65-1.76,4.65-1.76s3.54.59,4.64,1.78,1.64,2.86,1.64,5.03v.02c0,.9-.14,1.86-.42,2.9-.28,1.04-.66,2.06-1.12,3.08l-4.31,9.43h-3.86Zm3.44-12.38c.85,0,1.5-.28,1.97-.85.46-.56.7-1.36.7-2.38h0c0-1.01-.23-1.78-.7-2.32s-1.12-.81-1.97-.81-1.52.27-1.98.82c-.46.54-.7,1.32-.7,2.32v.02c0,1.02.23,1.81.7,2.37.46.56,1.12.84,1.98.84Z"/>
  </g>
</svg>