<?xml version="1.0" encoding="UTF-8"?>
<svg id="logo" xmlns="http://www.w3.org/2000/svg" viewBox="0 0 41.19 41.19">
  <defs>
    <style>
      .cls-1-S6-1-S6-1 {
        fill: #fff;
      }

      .cls-2-S6-1 {
        fill: #daa5f9;
      }
    </style>
  </defs>
  <circle class="cls-2-S6-1" cx="20.59" cy="20.59" r="20.59"/>
  <g>
    <path class="cls-1-S6-1-S6-1" d="m13.34,32.28c-1.06,0-2.08-.1-3.05-.31s-1.88-.51-2.73-.92c-.85-.4-1.63-.9-2.35-1.5l1.92-2.89c.85.72,1.8,1.26,2.85,1.63,1.05.37,2.17.55,3.35.55,1.47,0,2.62-.26,3.43-.79.81-.52,1.22-1.27,1.22-2.23h0c0-.75-.2-1.32-.61-1.71-.41-.39-.95-.68-1.61-.87s-1.39-.35-2.18-.48c-.84-.13-1.69-.3-2.55-.49-.86-.2-1.65-.5-2.38-.92-.72-.42-1.3-1.02-1.74-1.8-.44-.78-.66-1.82-.66-3.13h0c0-2.11.69-3.74,2.08-4.89s3.35-1.72,5.88-1.72c1.18,0,2.36.19,3.54.58s2.31.96,3.38,1.72l-1.76,2.98c-.85-.62-1.71-1.08-2.59-1.38s-1.74-.46-2.57-.46c-1.39,0-2.47.25-3.23.76s-1.14,1.23-1.14,2.16h0c0,.78.22,1.36.67,1.76.45.4,1.03.69,1.76.89s1.5.37,2.34.54c.83.16,1.65.36,2.47.59.82.23,1.57.57,2.25,1,.68.43,1.22,1.03,1.63,1.79.41.76.61,1.75.61,2.97v.03c0,2.08-.72,3.69-2.16,4.82-1.44,1.13-3.46,1.7-6.08,1.7Z"/>
    <path class="cls-1-S6-1-S6-1" d="m31.04,32.28c-1.99,0-3.53-.58-4.63-1.74-1.1-1.16-1.65-2.79-1.65-4.9h0c0-.96.13-1.97.4-3.03s.64-2.09,1.13-3.09l4.63-9.48h4l-5.45,10.97-.52-.54c.53-1,1.46-1.5,2.8-1.5,1.78,0,3.15.57,4.12,1.72.97,1.15,1.46,2.76,1.46,4.85v.02c0,2.13-.55,3.78-1.65,4.96s-2.65,1.76-4.65,1.76Zm0-3.48c.87,0,1.53-.26,1.99-.77s.69-1.25.69-2.21h0c0-1.08-.24-1.91-.71-2.49-.47-.58-1.16-.87-2.04-.87-.82,0-1.45.29-1.91.88s-.68,1.41-.68,2.48h0c0,.97.23,1.71.7,2.22.46.51,1.12.76,1.97.76Z"/>
  </g>
</svg>