<?xml version="1.0" encoding="UTF-8"?>
<svg id="logo" xmlns="http://www.w3.org/2000/svg" viewBox="0 0 55.28 41.19">
  <g>
    <path d="m1.54,6.72l1.81.27c-.27,2.18-.67,4.48-1.19,6.91-.5-.13-1.11-.27-1.81-.43.43-1.85.83-4.1,1.19-6.75ZM4.16.51h2.02v5.94l1.05-.7c1.17,1.29,2.19,2.55,3.05,3.78l-1.62,1.19c-.79-1.22-1.62-2.37-2.48-3.43v19.62h-2.02V.51Zm3.94,13.31h7.18c.14-1.49.24-3.72.3-6.67h-5.64v-1.92h5.67V.51h2.13c0,1.71,0,3.28-.03,4.72h6.59v8.58h2.64v1.92h-8.75c1.48,4.08,4.35,7.08,8.61,8.99-.47.45-1.07,1.14-1.81,2.08-4.08-2.3-6.85-5.59-8.29-9.85-1.08,4.05-3.72,7.41-7.91,10.07-.59-.76-1.12-1.36-1.59-1.81,4.32-2.56,6.92-5.71,7.8-9.47h-6.91v-1.92Zm14.09-6.67h-4.51c-.04,2.86-.12,5.08-.24,6.67h4.75v-6.67Z"/>
    <path d="m31.53,16.6c1.6-.23,3.49-.54,5.67-.92-.11.67-.19,1.36-.24,2.08-3.01.47-5.64.89-7.91,1.27l-.43-2.02c1.25-1.34,2.62-3.25,4.12-5.74-1.46.08-2.83.18-4.12.31l-.51-1.84c1.67-2.29,3.39-5.49,5.16-9.61l2.05.81c-1.85,3.65-3.45,6.53-4.78,8.64,1.07-.04,2.15-.08,3.25-.12.62-1.11,1.26-2.31,1.93-3.6l2,1c-2.2,3.8-4.26,7.04-6.18,9.74Zm-3.43,6.24c3.17-.68,6.37-1.43,9.61-2.24-.05.72-.08,1.4-.08,2.05-3,.7-5.98,1.45-8.93,2.24l-.59-2.05Zm8.04,1.92c3.38-1.21,6.31-2.62,8.79-4.22-.64-1.63-1.14-3.56-1.51-5.79l-5.76.81-.32-1.94,5.82-.81c-.15-1.26-.27-2.61-.34-4.04l-4.89.55-.32-1.94,5.1-.57c-.1-1.87-.19-4.02-.27-6.45h2.21c.04,2.32.1,4.39.18,6.21l9.03-1.03.24,1.92-9.19,1.07c.06,1.42.17,2.75.31,4l9.31-1.31.24,1.92-9.3,1.32c.31,1.86.72,3.48,1.24,4.86,1.91-1.44,3.5-3.01,4.76-4.72l1.75,1.32c-1.62,1.95-3.5,3.72-5.64,5.3.69,1.24,1.52,2.19,2.48,2.85,1.19.7,1.95.34,2.29-1.08.23-1.15.42-2.43.57-3.83.83.36,1.52.62,2.08.78-.31,1.94-.61,3.41-.92,4.4-.52,1.53-1.41,2.29-2.67,2.29s-2.53-.54-3.64-1.62c-.73-.69-1.38-1.55-1.96-2.58-2.47,1.6-5.25,2.99-8.33,4.17-.32-.5-.77-1.12-1.35-1.84ZM46.92,1.78l1.16-1.35c1.28.81,2.65,1.78,4.1,2.92l-1.3,1.57c-1.49-1.28-2.82-2.32-3.97-3.13Z"/>
  </g>
  <g>
    <path d="m7.2,39.84H1.71v-11.35h1.35v10.05h4.15v1.3Z"/>
    <path d="m8.45,28.88c0-.25.08-.47.24-.64.16-.17.36-.26.59-.26s.44.08.6.26c.16.17.25.39.25.64s-.08.46-.25.63c-.16.17-.36.25-.6.25s-.43-.08-.59-.25c-.16-.17-.24-.38-.24-.63Zm.15,10.96v-8.1h1.32v8.1h-1.32Z"/>
    <path d="m18.56,39.84h-1.31v-4.61c0-1.66-.56-2.5-1.67-2.5-.58,0-1.05.23-1.43.7-.37.47-.56,1.06-.56,1.78v4.62h-1.32v-8.1h1.32v1.34h.03c.56-1.02,1.37-1.53,2.44-1.53.82,0,1.44.28,1.86.85.43.57.64,1.4.64,2.49v4.95Z"/>
    <path d="m26.82,36.15h-5.21c.02.86.24,1.53.65,2,.41.47.99.71,1.73.71.83,0,1.6-.29,2.29-.87v1.28c-.65.5-1.52.75-2.6.75s-1.92-.37-2.52-1.11c-.6-.74-.9-1.77-.9-3.09,0-1.24.33-2.26.99-3.07.66-.81,1.48-1.21,2.46-1.21s1.73.34,2.28,1.02c.55.68.82,1.63.82,2.86v.73Zm-1.32-1.15c0-.73-.16-1.3-.48-1.7-.31-.4-.75-.6-1.32-.6-.53,0-.98.21-1.36.64-.38.42-.62.98-.72,1.66h3.89Z"/>
    <path d="m35.31,39.84v-9.71c-.21.23-.55.48-1.04.75-.49.28-.95.47-1.36.59v-1.41c.55-.17,1.14-.43,1.77-.79.63-.36,1.11-.71,1.45-1.03h.5v11.59h-1.3Z"/>
    <path d="m40.16,34.39c0-2,.3-3.52.91-4.54.61-1.03,1.49-1.54,2.65-1.54,2.21,0,3.31,1.94,3.31,5.81,0,1.92-.31,3.38-.93,4.39-.62,1.01-1.49,1.52-2.61,1.52-1.06,0-1.88-.48-2.46-1.44-.58-.96-.87-2.36-.87-4.2Zm1.34-.07c0,3.01.7,4.52,2.11,4.52s2.07-1.53,2.07-4.59-.68-4.75-2.03-4.75c-1.43,0-2.15,1.61-2.15,4.83Z"/>
    <path d="m54.58,39.84h-5.6v-11.35h5.37v1.3h-4.02v3.63h3.73v1.3h-3.73v3.82h4.26v1.3Z"/>
  </g>
</svg>