<?xml version="1.0" encoding="UTF-8"?>
<svg id="logo" xmlns="http://www.w3.org/2000/svg" viewBox="0 0 41.19 41.19">
  <defs>
    <style>
      .cls-1-10E-1-10E-1-10E-1 {
        fill: #fff;
      }

      .cls-2-10E-1 {
        fill: #17b4bc;
      }
    </style>
  </defs>
  <circle class="cls-2-10E-1" cx="20.59" cy="20.59" r="20.59"/>
  <g>
    <path class="cls-1-10E-1-10E-1-10E-1" d="m8.34,12.31v17.75h-2.92v-14.43l-2.34,1.18v-3.06l2.59-1.44h2.67Z"/>
    <path class="cls-1-10E-1-10E-1-10E-1" d="m17.31,30.24c-1.73,0-3.02-.45-3.89-1.36-.87-.91-1.3-2.13-1.3-3.68v-8.07c0-1.57.44-2.8,1.31-3.7.88-.9,2.17-1.34,3.88-1.34s3.01.45,3.88,1.34c.87.89,1.31,2.13,1.31,3.71v8.07c0,1.57-.44,2.8-1.31,3.7-.88.9-2.17,1.34-3.88,1.34Zm0-2.79c.81,0,1.39-.24,1.74-.71.35-.48.53-1.13.53-1.96v-7.21c0-.84-.18-1.49-.53-1.96-.35-.47-.93-.71-1.74-.71s-1.39.24-1.74.71c-.35.47-.53,1.13-.53,1.96v7.21c0,.83.18,1.48.53,1.96.35.48.93.71,1.74.71Z"/>
    <path class="cls-1-10E-1-10E-1-10E-1" d="m26.04,30.06V12.31h2.92v17.75h-2.92Zm1.21-14.95v-2.79h10.44v2.79h-10.44Zm0,7.53v-2.78h9.09v2.78h-9.09Zm0,7.42v-2.79h10.44v2.79h-10.44Z"/>
  </g>
</svg>