<?xml version="1.0" encoding="UTF-8"?>
<svg id="logo" xmlns="http://www.w3.org/2000/svg" viewBox="0 0 55.28 41.19">
  <g>
    <path d="m5.16,18.7v-1.97l1.17-2.78H.46v-1.97h26.75v1.97H8.56l-1.16,2.81h16.12c-.22,2.09-.42,3.8-.62,5.13-.43,2.93-2.12,4.4-5.08,4.4-2.07,0-4.28-.04-6.64-.11-.11-.61-.26-1.4-.46-2.35,2.57.22,4.81.32,6.72.32s3.04-.87,3.29-2.62c.13-.72.25-1.66.38-2.83H5.16ZM4.64,1.53h18.33v8.91h-2.13v-1.11H6.78v1.24h-2.13V1.53Zm16.2,1.94H6.78v3.91h14.06v-3.91Z"/>
    <path d="m31.53,16.6c1.6-.23,3.49-.54,5.67-.92-.11.67-.19,1.36-.24,2.08-3.01.47-5.64.89-7.91,1.27l-.43-2.02c1.25-1.34,2.62-3.25,4.12-5.74-1.46.08-2.83.18-4.12.31l-.51-1.84c1.67-2.29,3.39-5.49,5.16-9.61l2.05.81c-1.85,3.65-3.45,6.53-4.78,8.64,1.07-.04,2.16-.08,3.25-.12.62-1.11,1.26-2.31,1.93-3.6l2,1c-2.2,3.8-4.26,7.05-6.18,9.75Zm-3.43,6.24c3.17-.68,6.37-1.43,9.61-2.24-.05.72-.08,1.4-.08,2.05-3,.7-5.98,1.45-8.93,2.24l-.59-2.05Zm8.04,1.92c3.38-1.21,6.31-2.62,8.79-4.22-.64-1.63-1.14-3.56-1.51-5.79l-5.76.81-.32-1.94,5.82-.81c-.15-1.26-.27-2.6-.34-4.04l-4.89.55-.32-1.94,5.1-.57c-.1-1.87-.19-4.02-.27-6.45h2.21c.04,2.32.1,4.39.18,6.21l9.03-1.03.24,1.92-9.19,1.07c.06,1.42.17,2.75.31,4l9.31-1.31.24,1.92-9.3,1.32c.31,1.86.72,3.48,1.24,4.86,1.91-1.44,3.5-3.01,4.76-4.72l1.75,1.32c-1.62,1.95-3.5,3.72-5.64,5.3.69,1.24,1.52,2.19,2.48,2.85,1.19.7,1.95.34,2.29-1.08.23-1.15.42-2.43.57-3.83.83.36,1.52.62,2.08.78-.31,1.94-.61,3.41-.92,4.4-.52,1.53-1.41,2.29-2.67,2.29s-2.53-.54-3.64-1.62c-.73-.69-1.38-1.55-1.96-2.58-2.47,1.6-5.25,2.99-8.33,4.17-.32-.5-.77-1.12-1.35-1.84ZM46.92,1.78l1.16-1.35c1.28.81,2.65,1.78,4.1,2.92l-1.3,1.57c-1.49-1.28-2.82-2.32-3.97-3.13Z"/>
  </g>
  <g>
    <path d="m6.99,39.84H1.67v-11.35h1.3v10.05h4.02v1.3Z"/>
    <path d="m8.2,28.88c0-.25.08-.47.23-.64.15-.17.34-.26.57-.26s.42.08.58.26c.16.17.24.39.24.64s-.08.46-.24.63c-.16.17-.35.25-.58.25s-.42-.08-.57-.25c-.15-.17-.23-.38-.23-.63Zm.15,10.96v-8.1h1.28v8.1h-1.28Z"/>
    <path d="m18.01,39.84h-1.27v-4.61c0-1.66-.54-2.5-1.62-2.5-.56,0-1.02.23-1.38.7s-.54,1.06-.54,1.78v4.62h-1.28v-8.1h1.28v1.34h.03c.54-1.02,1.33-1.53,2.37-1.53.79,0,1.39.28,1.81.85.41.57.62,1.4.62,2.49v4.95Z"/>
    <path d="m26.01,36.15h-5.05c.02.86.23,1.53.63,2,.4.47.96.71,1.68.71.81,0,1.55-.29,2.22-.87v1.28c-.63.5-1.48.75-2.52.75s-1.86-.37-2.44-1.11c-.58-.74-.88-1.77-.88-3.09,0-1.24.32-2.26.96-3.07.64-.81,1.44-1.21,2.39-1.21s1.68.34,2.21,1.02c.53.68.8,1.63.8,2.86v.73Zm-1.28-1.15c0-.73-.16-1.3-.46-1.7s-.73-.6-1.28-.6c-.51,0-.95.21-1.32.64-.37.42-.61.98-.7,1.66h3.77Z"/>
    <path d="m39.2,39.84h-1.54l-1.67-3.15c-.33-.63-.64-1.06-.92-1.29-.28-.23-.61-.34-1-.34h-.94v4.78h-1.3v-11.35h3.08c.98,0,1.75.27,2.31.8.56.53.83,1.28.83,2.23,0,1.57-.75,2.59-2.24,3.06v.04c.28.13.52.32.72.56.2.24.46.66.79,1.25l1.89,3.4Zm-6.07-10.06v4.01h1.54c.6,0,1.08-.2,1.45-.59.37-.39.56-.9.56-1.54,0-.59-.17-1.05-.51-1.38-.34-.33-.83-.5-1.48-.5h-1.56Z"/>
    <path d="m39.88,36.67c0-.65.17-1.26.52-1.81s.8-.95,1.34-1.18c-.44-.28-.79-.63-1.04-1.07-.26-.43-.38-.91-.38-1.41,0-.54.12-1.03.37-1.47.25-.44.59-.79,1.02-1.05s.92-.38,1.44-.38,1.01.12,1.45.38c.44.25.78.6,1.02,1.04.24.45.37.94.37,1.48,0,.5-.12.96-.38,1.4-.25.44-.6.8-1.04,1.08.55.24.99.63,1.34,1.19.34.55.52,1.15.52,1.8s-.14,1.22-.41,1.73c-.27.51-.66.91-1.17,1.19-.5.28-1.07.43-1.7.43s-1.19-.14-1.69-.43c-.5-.28-.89-.68-1.17-1.19-.28-.51-.42-1.09-.42-1.73Zm1.25-.07c0,.67.18,1.21.55,1.62.37.41.86.61,1.47.61s1.09-.21,1.47-.62c.38-.41.57-.95.57-1.61,0-.62-.19-1.15-.58-1.58-.38-.43-.87-.64-1.46-.64s-1.07.21-1.45.63c-.38.42-.57.95-.57,1.59Zm.37-5.29c0,.51.16.94.48,1.31.32.36.71.55,1.18.55s.85-.18,1.18-.55c.33-.37.5-.8.5-1.3s-.16-.95-.48-1.3c-.32-.36-.72-.53-1.2-.53s-.87.17-1.19.52c-.32.35-.47.79-.47,1.32Z"/>
    <path d="m48.37,39.84v-11.35h2.97c.89,0,1.59.24,2.12.71.53.48.8,1.11.8,1.89,0,.63-.16,1.18-.47,1.66s-.75.82-1.3,1.02v.03c.69.09,1.24.38,1.65.88.41.5.62,1.12.62,1.89,0,.98-.31,1.77-.94,2.37-.62.6-1.42.9-2.4.9h-3.04Zm1.3-10.06v3.55h1.19c.63,0,1.12-.17,1.48-.52.36-.34.54-.82.54-1.43,0-1.07-.63-1.6-1.9-1.6h-1.3Zm0,4.83v3.96h1.57c.68,0,1.21-.18,1.58-.53.37-.35.56-.85.56-1.48,0-1.3-.79-1.95-2.35-1.95h-1.35Z"/>
  </g>
</svg>