<?xml version="1.0" encoding="UTF-8"?>
<svg id="logo" xmlns="http://www.w3.org/2000/svg" viewBox="0 0 41.19 41.19">
  <defs>
    <style>
      .cls-1-23-1-23-1 {
        fill: #fff;
      }

      .cls-2-23-1 {
        fill: #92bbdd;
      }
    </style>
  </defs>
  <circle class="cls-2-23-1" cx="20.59" cy="20.59" r="20.59"/>
  <g>
    <path class="cls-1-23-1-23-1" d="m6.08,32.06v-3.43l8.15-10.79c.42-.55.75-1.12.98-1.7.23-.58.35-1.13.35-1.65v-.03c0-.79-.24-1.4-.72-1.83-.48-.43-1.16-.65-2.05-.65s-1.53.26-2.06.79c-.53.52-.85,1.27-.96,2.23v.02h-3.98v-.02c.23-2.14.96-3.79,2.19-4.96,1.23-1.17,2.82-1.76,4.78-1.76,2.16,0,3.83.54,5.02,1.6,1.19,1.07,1.78,2.58,1.78,4.54v.02c0,.95-.18,1.92-.54,2.9-.36.98-.86,1.9-1.5,2.74l-6.32,8.29h8.49v3.71H6.08Z"/>
    <path class="cls-1-23-1-23-1" d="m29.9,32.3c-1.37,0-2.58-.25-3.64-.75-1.05-.5-1.89-1.22-2.53-2.16-.63-.94-1.01-2.09-1.14-3.44h3.97c.13.87.46,1.53,1,1.96.54.43,1.24.65,2.09.65.97,0,1.72-.26,2.25-.79.53-.52.79-1.27.79-2.23v-.63c0-1.04-.24-1.84-.7-2.41-.47-.57-1.14-.85-2.02-.85h-1.83v-3.69h1.83c.75,0,1.32-.25,1.72-.74s.61-1.18.61-2.07v-.57c0-.83-.22-1.47-.66-1.92-.44-.45-1.06-.67-1.85-.67-.72,0-1.34.23-1.84.69s-.84,1.15-1.03,2.08h-3.95c.27-2.07,1.03-3.68,2.27-4.81,1.24-1.13,2.79-1.7,4.63-1.7,2.05,0,3.64.54,4.77,1.6,1.13,1.07,1.69,2.58,1.69,4.52v.55c0,1.13-.3,2.12-.89,2.96s-1.44,1.46-2.53,1.87c1.21.27,2.15.88,2.81,1.84.66.96,1,2.17,1,3.65v.55c0,2.06-.6,3.66-1.79,4.79s-2.88,1.7-5.04,1.7Z"/>
  </g>
</svg>