<?xml version="1.0" encoding="UTF-8"?>
<svg id="logo" xmlns="http://www.w3.org/2000/svg" viewBox="0 0 55.28 41.19">
  <g>
    <path d="m5.16,18.7v-1.97l1.17-2.78H.46v-1.97h26.75v1.97H8.56l-1.16,2.81h16.12c-.22,2.09-.42,3.8-.62,5.13-.43,2.93-2.12,4.4-5.08,4.4-2.07,0-4.28-.04-6.64-.11-.11-.61-.26-1.39-.46-2.35,2.57.22,4.81.32,6.72.32s3.04-.87,3.29-2.62c.13-.72.25-1.67.38-2.83H5.16ZM4.64,1.53h18.33v8.91h-2.13v-1.11H6.78v1.24h-2.13V1.53Zm16.2,1.94H6.78v3.91h14.06v-3.91Z"/>
    <path d="m31.53,16.6c1.6-.23,3.49-.54,5.67-.92-.11.67-.19,1.36-.24,2.08-3.01.47-5.64.89-7.91,1.27l-.43-2.02c1.25-1.34,2.62-3.25,4.12-5.74-1.46.08-2.83.18-4.12.31l-.51-1.84c1.67-2.29,3.39-5.49,5.16-9.61l2.05.81c-1.85,3.65-3.45,6.53-4.78,8.64,1.07-.04,2.16-.08,3.25-.12.62-1.11,1.26-2.31,1.93-3.6l2,1c-2.2,3.8-4.26,7.04-6.18,9.74Zm-3.43,6.24c3.17-.68,6.37-1.43,9.61-2.24-.05.72-.08,1.4-.08,2.05-3.01.7-5.98,1.45-8.94,2.24l-.59-2.05Zm8.04,1.92c3.38-1.21,6.31-2.62,8.79-4.22-.64-1.63-1.14-3.56-1.51-5.79l-5.76.81-.32-1.94,5.82-.81c-.15-1.26-.27-2.61-.34-4.04l-4.89.55-.32-1.94,5.1-.57c-.1-1.87-.19-4.02-.27-6.45h2.21c.04,2.32.1,4.39.17,6.21l9.03-1.03.24,1.92-9.19,1.07c.06,1.42.17,2.75.31,4l9.31-1.31.24,1.92-9.3,1.32c.31,1.86.72,3.48,1.24,4.86,1.91-1.44,3.5-3.01,4.76-4.72l1.75,1.32c-1.62,1.95-3.5,3.72-5.64,5.3.69,1.24,1.52,2.19,2.48,2.85,1.19.7,1.95.34,2.29-1.08.23-1.15.42-2.43.57-3.83.83.36,1.52.62,2.08.78-.31,1.94-.61,3.41-.92,4.4-.52,1.53-1.41,2.29-2.67,2.29s-2.53-.54-3.64-1.62c-.73-.69-1.38-1.55-1.96-2.58-2.47,1.6-5.25,2.99-8.33,4.17-.32-.5-.77-1.12-1.35-1.84ZM46.92,1.78l1.16-1.35c1.28.81,2.65,1.78,4.1,2.92l-1.3,1.57c-1.49-1.28-2.82-2.32-3.97-3.13Z"/>
  </g>
  <g>
    <path d="m7.81,39.84H1.83v-11.34h1.46v10.05h4.52v1.3Z"/>
    <path d="m9.17,28.88c0-.25.09-.47.26-.64.17-.17.39-.26.64-.26s.48.08.66.26c.18.17.27.39.27.64s-.09.46-.27.63c-.18.17-.4.25-.66.25s-.47-.08-.64-.25-.26-.38-.26-.63Zm.17,10.96v-8.1h1.44v8.1h-1.44Z"/>
    <path d="m20.18,39.84h-1.43v-4.61c0-1.67-.61-2.5-1.82-2.5-.63,0-1.15.23-1.55.7-.4.47-.61,1.06-.61,1.78v4.62h-1.44v-8.1h1.44v1.34h.03c.61-1.02,1.5-1.53,2.66-1.53.89,0,1.57.29,2.03.85s.7,1.4.7,2.49v4.95Z"/>
    <path d="m29.18,36.15h-5.67c.02.86.26,1.53.71,2s1.08.71,1.88.71c.91,0,1.74-.29,2.5-.87v1.28c-.71.5-1.66.75-2.83.75s-2.09-.37-2.74-1.11c-.66-.74-.99-1.77-.99-3.09,0-1.24.36-2.26,1.08-3.07.72-.81,1.62-1.21,2.68-1.21s1.89.34,2.48,1.02c.6.68.89,1.63.89,2.86v.73Zm-1.44-1.15c0-.73-.18-1.3-.52-1.7s-.82-.6-1.44-.6c-.57,0-1.07.21-1.48.64-.42.42-.68.98-.79,1.66h4.23Z"/>
    <path d="m34.96,36.67c0-.65.2-1.26.59-1.81s.89-.95,1.51-1.18c-.49-.28-.88-.63-1.17-1.07-.29-.43-.43-.91-.43-1.41,0-.54.14-1.03.41-1.47.28-.44.66-.79,1.15-1.05.49-.25,1.03-.38,1.62-.38s1.14.12,1.63.38.88.6,1.15,1.04.41.94.41,1.48c0,.5-.14.96-.42,1.4-.28.44-.67.8-1.17,1.08.62.24,1.12.63,1.5,1.19.39.55.58,1.15.58,1.8s-.15,1.22-.46,1.73c-.31.51-.74.91-1.31,1.19s-1.2.42-1.91.42-1.33-.14-1.9-.42-1-.68-1.31-1.19-.47-1.09-.47-1.73Zm1.41-.07c0,.67.21,1.21.62,1.62s.97.61,1.66.61,1.22-.21,1.65-.62c.43-.41.64-.95.64-1.61,0-.62-.22-1.15-.65-1.58-.43-.43-.98-.64-1.64-.64s-1.2.21-1.63.63c-.43.42-.64.95-.64,1.59Zm.41-5.29c0,.51.18.94.54,1.31.36.36.8.55,1.33.55s.96-.18,1.33-.55c.37-.37.56-.8.56-1.3s-.18-.95-.54-1.3c-.36-.36-.81-.54-1.35-.54s-.98.17-1.34.52c-.35.35-.53.79-.53,1.31Z"/>
  </g>
</svg>