<?xml version="1.0" encoding="UTF-8"?>
<svg id="logo" xmlns="http://www.w3.org/2000/svg" xmlns:xlink="http://www.w3.org/1999/xlink" viewBox="0 0 800 480">
  <defs>
    <style>
      .cls-1 {
        fill: url(#_未命名的渐变_25);
      }
    </style>
    <linearGradient id="_未命名的渐变_25" data-name="未命名的渐变 25" x1="-9752" y1="455" x2="-9674" y2="455" gradientTransform="translate(10474 910) scale(1 -1)" gradientUnits="userSpaceOnUse">
      <stop offset="0" stop-color="#adadad"/>
      <stop offset="1" stop-color="#fff"/>
    </linearGradient>
  </defs>
  <rect class="cls-1" x="722" y="434" width="78" height="42" transform="translate(1522 910) rotate(-180)"/>
  <g>
    <path d="m734.22,438.64c.26.05.81.1,1.64.16h13.67c.83,0,1.8-.05,2.89-.16v1.8c-.89-.05-1.85-.1-2.89-.16h-.7v13.67c-.21.83-1.43,1.28-3.67,1.33-.1-.68-.39-1.38-.86-2.11,1.82.37,2.73.23,2.73-.39v-12.5h-9.06c-1.56.05-2.81.1-3.75.16v-1.8Zm2.58,3.98c.68.1,1.3.13,1.88.08h3.44c.73.05,1.43.03,2.11-.08-.05.68-.08,1.25-.08,1.72v5.23c0,.68.03,1.2.08,1.56h-2.03v-.08c.1-.52.16-1.04.16-1.56h-3.67v.7c0,.78.05,1.38.16,1.8h-2.03v-.7c0-.26.03-.55.08-.86v-6.88c-.05-.31-.08-.62-.08-.94Zm1.88,1.64v3.67h3.75v-3.67h-3.75Z"/>
    <path d="m758.52,443.17h-.16v3.2l1.88-1.09.23,1.72-2.19,1.02v5.39c0,.68-.21,1.12-.62,1.33-.31.26-1.15.47-2.5.62-.1-.57-.34-1.15-.7-1.72,1.72.16,2.47-.16,2.27-.94v-3.98l-2.11,1.17-.62-1.72,2.81-1.17v-3.83h-.31c-.73,0-1.41.05-2.03.16h-.23v-1.72l.16.08c.26.05.96.08,2.11.08h.31v-2.27c-.05-.52-.08-1.04-.08-1.56v-.23c1.25.16,1.93.29,2.03.39,0,.1-.05.21-.16.31-.21.26-.29.57-.23.94v2.5h.16c.78,0,1.41-.05,1.88-.16v1.64c-.47-.05-1.09-.1-1.88-.16Zm5.78-5.62c.78.26,1.38.52,1.8.78,0,.05-.08.13-.23.23-.42.37-.78.78-1.09,1.25h3.05c1.15.05,1.88.03,2.19-.08-.16.37-.94,1.51-2.34,3.44-.1.16-.18.26-.23.31h3.28c.21-.05.34-.08.39-.08-.1.42-.16,1.07-.16,1.95v3.28c.89,0,1.48-.03,1.8-.08.05-.05.1-.08.16-.08v1.64h-.23c-.42-.1-.99-.16-1.72-.16h-3.28c.68,2.29,2.27,3.54,4.77,3.75-.57.57-.96,1.22-1.17,1.95-2.86-1.09-4.43-2.97-4.69-5.62-.73,2.5-2.76,4.38-6.09,5.62-.21-.47-.68-1.02-1.41-1.64,3.12-.36,5.08-1.72,5.86-4.06h-3.36c-.62,0-1.22.05-1.8.16h-.16v-1.64l.16.08c.26.05.86.08,1.8.08v-3.36c0-.99-.05-1.61-.16-1.88.16.1.86.13,2.11.08h2.11c.83-.94,1.43-1.77,1.8-2.5h-3.28c-.42.52-1.09,1.3-2.03,2.34-.73-.47-1.28-.78-1.64-.94,1.56-.99,2.84-2.6,3.83-4.84Zm1.09,7.19h-2.34v3.91h2.19c.05-.73.08-1.56.08-2.5,0-.57.03-1.04.08-1.41Zm1.48,0c0,1.88-.03,3.18-.08,3.91h2.58v-3.91h-2.5Z"/>
    <path d="m788.52,437.85c.78,1.09,1.15,1.75,1.09,1.95-.1.1-.29.13-.55.08-.36-.1-.65-.16-.86-.16-.47.05-1.17.13-2.11.23-.57.05-1.28.1-2.11.16v1.72h5c.89,0,1.8-.05,2.73-.16v1.64c-.99-.05-1.85-.1-2.58-.16h-5.16v3.67c1.41,3.59,4.17,5.52,8.28,5.78-.68.62-1.17,1.25-1.48,1.88-3.54-.99-5.81-2.76-6.8-5.31v3.44c0,1.67.03,2.55.08,2.66.05.1.08.18.08.23h-1.8c-.05-.05-.05-.13,0-.23.1-.21.18-1.09.23-2.66v-3.44c-1.56,2.71-3.93,4.61-7.11,5.7-.42-.62-.91-1.15-1.48-1.56,2.71-.36,4.92-1.56,6.64-3.59h-1.48c0-.26.05-.68.16-1.25-.83.47-1.77.91-2.81,1.33-.21.1-.42.21-.62.31l-.7-1.56c1.3-.26,2.68-.7,4.14-1.33v-1.02h-1.41c-.73.05-1.54.1-2.42.16v-1.48c.94.1,1.72.16,2.34.16h1.48c-.05-.1-.08-.26-.08-.47v-.7c1.2.1,1.8.21,1.8.31-.05.05-.1.13-.16.23-.1.21-.16.42-.16.62v2.66c-.05.83,0,1.41.16,1.72.83-1.09,1.41-1.9,1.72-2.42v-3.83h-5c-.78.05-1.77.1-2.97.16v-1.64c1.09.1,2.06.16,2.89.16h5.08v-1.64c-.78.05-2.73.21-5.86.47-.16-.62-.39-1.17-.7-1.64,5.42.1,9.58-.29,12.5-1.17Zm-2.89,6.02c1.04.05,1.67.1,1.88.16,0,.05-.05.16-.16.31-.16.37-.23.78-.23,1.25.89-.36,1.85-.86,2.89-1.48.62.73.96,1.17,1.02,1.33-.05.05-.21.1-.47.16-.99.21-2.11.55-3.36,1.02v.78c-.16.73.26,1.04,1.25.94,1.04.16,1.56-.47,1.56-1.88.52.47,1.04.76,1.56.86-.31,1.72-1.17,2.5-2.58,2.34h-1.33c-1.35.05-2-.6-1.95-1.95v-2.5c0-.62-.03-1.07-.08-1.33Z"/>
  </g>
  <g>
    <path d="m730.47,461.22v-1.23h8.67v1.23h-3.63v9.49h-1.41v-9.49h-3.63Z"/>
    <path d="m741.78,466.14v4.57h-1.35v-7.85h1.29v1.35c.59-1.05,1.33-1.58,2.23-1.58.04,0,.1.02.18.06h.18v1.41h-.53c-1.25.12-1.91.8-1.99,2.05Z"/>
    <path d="m746.41,465.27h-1.23c.04-1.72,1.11-2.6,3.22-2.64,1.88.12,2.83.86,2.87,2.23v4.51c0,.35.16.51.47.47h.18c.12-.04.21-.06.29-.06v.94h-.35c-.16.04-.29.06-.41.06-.94,0-1.39-.37-1.35-1.11-.78.78-1.74,1.17-2.87,1.17-1.56-.08-2.38-.8-2.46-2.17,0-1.41.8-2.23,2.4-2.46l2.17-.23c.47-.04.7-.35.7-.94-.04-.82-.66-1.25-1.88-1.29-1.09.04-1.68.55-1.76,1.52Zm3.57,2.75v-1.29c-.31.2-1.04.37-2.17.53-1.13.12-1.68.53-1.64,1.23-.04.9.41,1.35,1.35,1.35,1.48-.08,2.3-.68,2.46-1.82Z"/>
    <path d="m759.89,465.38v5.33h-1.29v-4.8c.04-1.41-.53-2.09-1.7-2.05-1.37.12-2.05.98-2.05,2.58v4.28h-1.35v-7.85h1.29v1.11c.59-.86,1.39-1.31,2.4-1.35,1.76.08,2.66,1,2.7,2.75Z"/>
    <path d="m767.56,465.15h-1.29c0-.86-.62-1.31-1.88-1.35-1.02.08-1.52.45-1.52,1.11-.12.55.35.9,1.41,1.05l1.35.29c1.48.35,2.21,1.05,2.17,2.11-.12,1.56-1.13,2.38-3.05,2.46-2.27,0-3.4-.88-3.4-2.64h1.23c.08,1.09.8,1.64,2.17,1.64,1.09-.04,1.68-.47,1.76-1.29.04-.47-.47-.84-1.52-1.11l-1.58-.35c-1.25-.27-1.86-.9-1.82-1.88.08-1.6,1.07-2.46,2.99-2.58,1.84.04,2.83.88,2.99,2.52Z"/>
    <path d="m772.31,463.98h-1.35v6.74h-1.29v-6.74h-1.05v-1.11h1.05v-1.29c0-1.13.66-1.72,1.99-1.76.2,0,.41.02.64.06v1.11h-.59c-.55,0-.8.31-.76.94v.94h1.35v1.11Z"/>
    <path d="m778.87,468.25h1.29c-.2.94-.66,1.66-1.41,2.17-.47.27-1.17.41-2.11.41-2.27-.08-3.44-1.35-3.52-3.81.08-2.85,1.33-4.32,3.75-4.39,2.19.08,3.32,1.62,3.4,4.63h-5.74c0,1.72.76,2.58,2.29,2.58,1.05-.04,1.74-.57,2.05-1.58Zm-4.34-2.05h4.39c-.16-1.56-.9-2.34-2.23-2.34-1.33.16-2.05.94-2.17,2.34Z"/>
    <path d="m783.32,466.14v4.57h-1.35v-7.85h1.29v1.35c.59-1.05,1.33-1.58,2.23-1.58.04,0,.1.02.18.06h.18v1.41h-.53c-1.25.12-1.91.8-1.99,2.05Z"/>
    <path d="m792.46,465.15h-1.29c0-.86-.62-1.31-1.88-1.35-1.02.08-1.52.45-1.52,1.11-.12.55.35.9,1.41,1.05l1.35.29c1.48.35,2.21,1.05,2.17,2.11-.12,1.56-1.13,2.38-3.05,2.46-2.27,0-3.4-.88-3.4-2.64h1.23c.08,1.09.8,1.64,2.17,1.64,1.09-.04,1.68-.47,1.76-1.29.04-.47-.47-.84-1.52-1.11l-1.58-.35c-1.25-.27-1.86-.9-1.82-1.88.08-1.6,1.07-2.46,2.99-2.58,1.84.04,2.83.88,2.99,2.52Z"/>
  </g>
</svg>