<?xml version="1.0" encoding="UTF-8"?>
<svg id="logo" xmlns="http://www.w3.org/2000/svg" viewBox="0 0 41.19 41.19">
  <defs>
    <style>
      .cls-1-CR-1 {
        fill: #e60012;
      }
    </style>
  </defs>
  <path class="cls-1-CR-1" d="m26.43,31.81c6.67-3.39,9.32-11.54,5.93-18.21-3.39-6.67-11.54-9.32-18.21-5.93-6.67,3.39-9.32,11.54-5.93,18.21,1.3,2.56,3.38,4.63,5.93,5.93l-2.49,3.25C3.2,30.3.2,19.58,4.97,11.12c2.53-4.5,6.92-7.66,11.99-8.64-.14-.96.53-1.85,1.49-1.99.03,0,.06,0,.09-.01,1.17-.11,2.35-.11,3.52,0,.97.09,1.68.94,1.59,1.91,0,.03,0,.06-.01.09,9.54,1.84,15.77,11.07,13.93,20.61-.98,5.07-4.14,9.45-8.64,11.99l-2.49-3.25Zm4.73,6.81c.33.07.57.35.57.69v1.53H8.86v-1.53c0-.34.24-.62.57-.69l7.48-1.5c1.15-.23,1.98-1.24,1.98-2.41v-10c0-.79-.52-1.48-1.28-1.69l-3.47-.99v-3.2c0-1.28.99-2.35,2.27-2.45,2.59-.2,5.19-.2,7.78,0,1.28.1,2.27,1.17,2.27,2.45v3.2l-3.47.99c-.76.22-1.28.91-1.28,1.69v10c0,1.17.83,2.18,1.98,2.41l7.48,1.5Z"/>
</svg>