<?xml version="1.0" encoding="UTF-8"?>
<svg id="logo" xmlns="http://www.w3.org/2000/svg" viewBox="0 0 55.28 41.19">
  <g>
    <path d="m8.02,26.77h-2.13v-13.97c-1.3,1.52-2.74,2.98-4.32,4.39-.38-.63-.81-1.29-1.3-1.97,3.47-2.91,6.19-6.13,8.14-9.66H1.03v-2h8.4c.51-1.12.95-2.28,1.32-3.46l2.24.51c-.36,1-.76,1.98-1.19,2.94h15.25v2H10.83c-.56,1.06-1.17,2.1-1.84,3.1h14.79v14.42c0,2.23-1.09,3.35-3.27,3.35-.95.02-2.4.03-4.35.03-.09-.61-.22-1.35-.41-2.21,1.66.12,2.99.19,4,.19,1.24,0,1.86-.61,1.86-1.84v-1.92h-13.61v6.1Zm13.61-16.22h-13.61v3.21h13.61v-3.21Zm-13.61,8.29h13.61v-3.24h-13.61v3.24Z"/>
    <path d="m31.2,12.74h2.92v-5.05h2.05v5.05h3.1v2h-3.1v3.48c1.01-.2,2.04-.4,3.1-.62-.04.83-.05,1.52-.05,2.08-.99.18-2.01.37-3.05.57v6.72h-2.05v-6.32c-1.82.36-3.72.75-5.7,1.16l-.46-2.16c1.96-.29,4.01-.63,6.16-1.03v-3.89h-5.18v-1.7c.77-2.23,1.51-4.62,2.21-7.18h-2.81v-1.89h3.29c.31-1.21.61-2.45.92-3.72l2.19.43c-.31,1.13-.6,2.23-.89,3.29h5.34v1.89h-5.88c-.72,2.5-1.42,4.79-2.11,6.88Zm8.1-6.48h3.05V.35h2.11v5.91h6.13v16.66c0,.7.23,1.05.7,1.05h.35c.5,0,.82-.5.94-1.51.16-1.17.3-2.79.41-4.86.61.31,1.26.56,1.94.76-.11,1.57-.27,3.13-.49,4.7-.29,1.98-1.13,2.97-2.54,2.97h-1.24c-1.42,0-2.13-.95-2.13-2.86v-14.9h-4.08c-.04,5.29-.31,9.05-.81,11.28-.58,2.81-1.78,5.33-3.62,7.56-.52-.63-1.11-1.21-1.75-1.73,1.67-1.73,2.8-3.98,3.38-6.75.43-1.84.67-5.29.7-10.37h-3.05v-2Z"/>
  </g>
  <g>
    <path d="m5.71,39.84h-.77v-5.11H1.91v5.11h-.77v-11.35h.77v4.93h3.03v-4.93h.77v11.35Z"/>
    <path d="m7.06,28.88c0-.25.05-.47.14-.64.09-.17.2-.26.34-.26s.25.08.35.26.14.39.14.64-.05.46-.14.63c-.09.17-.21.25-.35.25s-.25-.08-.34-.25c-.09-.17-.13-.38-.13-.63Zm.09,10.96v-8.1h.76v8.1h-.76Z"/>
    <path d="m12.96,39.15c0,3-.77,4.5-2.3,4.5-.53,0-.99-.19-1.38-.56v-1.38c.48.5.93.75,1.37.75,1.04,0,1.56-1.04,1.56-3.11v-.86h-.02c-.32,1.02-.81,1.53-1.45,1.53-.54,0-.96-.36-1.29-1.09-.32-.73-.48-1.69-.48-2.89,0-1.38.18-2.48.53-3.29.36-.81.83-1.21,1.42-1.21s.99.43,1.27,1.29h.02v-1.1h.76v7.42Zm-.76-4.14c0-.62-.11-1.16-.33-1.61s-.5-.67-.83-.67c-.41,0-.73.29-.96.86-.23.57-.34,1.36-.34,2.36,0,.86.11,1.56.33,2.09.22.53.51.8.88.8s.67-.25.9-.76.35-1.15.35-1.93v-1.13Z"/>
    <path d="m17.92,39.84h-.75v-4.66c0-1.63-.32-2.45-.96-2.45-.33,0-.6.24-.81.71-.22.48-.32,1.08-.32,1.8v4.59h-.76v-11.99h.76v5.22h.01c.33-1.02.79-1.52,1.39-1.52.96,0,1.44,1.1,1.44,3.3v4.99Z"/>
    <path d="m21.38,35.9h-2.27v-1.11h2.27v1.11Z"/>
    <path d="m26.31,29.8h-1.73v10.04h-.78v-10.04h-1.72v-1.3h4.22v1.3Z"/>
    <path d="m29.74,36.15h-2.99c.01.86.14,1.53.37,2,.24.47.57.71.99.71.48,0,.92-.29,1.32-.87v1.28c-.38.5-.87.75-1.49.75s-1.1-.37-1.45-1.11-.52-1.77-.52-3.09c0-1.24.19-2.26.57-3.07.38-.81.85-1.21,1.42-1.21s1,.34,1.31,1.02c.31.68.47,1.63.47,2.86v.73Zm-.76-1.15c0-.73-.09-1.3-.27-1.7-.18-.4-.43-.6-.76-.6-.3,0-.56.21-.78.64-.22.42-.36.98-.42,1.66h2.23Z"/>
    <path d="m33.69,39.47c-.33.37-.72.56-1.18.56-.62,0-1.11-.38-1.49-1.13-.38-.75-.56-1.73-.56-2.92,0-1.33.2-2.4.61-3.21.41-.81.95-1.22,1.63-1.22.39,0,.73.13,1,.4v1.42c-.3-.42-.64-.63-1-.63-.43,0-.78.28-1.06.85-.27.57-.41,1.33-.41,2.27s.13,1.66.38,2.19c.26.53.6.79,1.04.79.37,0,.71-.23,1.04-.69v1.32Z"/>
    <path d="m38.31,39.84h-.75v-4.66c0-1.63-.32-2.45-.96-2.45-.33,0-.6.24-.81.71-.22.48-.32,1.08-.32,1.8v4.59h-.76v-11.99h.76v5.22h.01c.33-1.02.79-1.52,1.39-1.52.96,0,1.44,1.1,1.44,3.3v4.99Z"/>
    <path d="m45.16,39.84h-3.15v-11.35h.77v10.05h2.38v1.3Z"/>
    <path d="m50.44,39.84h-.91l-.99-3.15c-.2-.63-.38-1.06-.54-1.29-.16-.23-.36-.34-.59-.34h-.56v4.78h-.77v-11.35h1.82c.58,0,1.04.27,1.37.8s.49,1.28.49,2.23c0,1.57-.44,2.59-1.33,3.06v.04c.17.13.31.32.43.56s.27.66.46,1.25l1.12,3.4Zm-3.59-10.06v4.01h.91c.35,0,.64-.2.86-.59s.33-.9.33-1.54c0-.59-.1-1.05-.3-1.38-.2-.33-.49-.5-.88-.5h-.92Z"/>
    <path d="m54.62,29.8h-1.73v10.04h-.78v-10.04h-1.72v-1.3h4.22v1.3Z"/>
  </g>
</svg>