<?xml version="1.0" encoding="UTF-8"?>
<svg id="logo" xmlns="http://www.w3.org/2000/svg" viewBox="0 0 41.19 41.19">
  <defs>
    <style>
      .cls-1-HS-1-HS-1 {
        fill: #fff;
      }

      .cls-2-HS-1 {
        fill: #5ba37c;
      }
    </style>
  </defs>
  <circle class="cls-2-HS-1" cx="20.59" cy="20.59" r="20.59"/>
  <g>
    <path class="cls-1-HS-1-HS-1" d="m17.86,10.61c.05.12.1.2.15.26,1.03,1.38,1.47,2.06,1.32,2.06-.16.06-.41.09-.77.09-.36-.06-.96-.09-1.78-.09-3.4.29-6.7.46-9.9.52v3.01h11.99c.62-.06,1.13-.14,1.55-.26v1.98h-.15c-1.44-.17-2.55-.26-3.33-.26H6.88c-.05,4.58-.93,8.34-2.63,11.26-.72-.52-1.39-.8-2.01-.86,1.29-1.2,2.17-3.06,2.63-5.59.31-2.52.39-6.13.23-10.83,1.75.17,3.87.14,6.34-.09,2.63-.29,4.77-.69,6.42-1.2Zm-10.05,10.05c1.03.12,1.78.17,2.24.17h6.34c.57,0,1.34-.06,2.32-.17-.1.52-.15.97-.15,1.38v5.76c0,.52.05,1.2.15,2.06h-1.93c.05-.57.1-1.12.15-1.63h-7.35c0,.57.03,1.12.08,1.63h-1.86c.05-.57.1-1.26.15-2.06v-5.76c0-.34-.05-.8-.15-1.38Zm1.78,1.63v4.55h7.35v-4.55h-7.35Z"/>
    <path class="cls-1-HS-1-HS-1" d="m28.33,10.78c1.24.06,2.06.14,2.47.26,0,.12-.05.26-.15.43-.26.34-.39.72-.39,1.12v14.18h4.72v-9.8c-.05-.23-.08-.46-.08-.69v-.77c1.29.06,1.98.14,2.09.26,0,.12-.05.23-.15.34-.16.29-.23.6-.23.95v9.54c0,1.32.05,2.29.16,2.92h-1.86v-.69c0-.17.03-.34.08-.52h-12.45l-.31.09v-1.38c0-.52.03-1.06.08-1.63v-7.82c0-.69-.03-1.32-.08-1.89v-.26c1.13.06,1.86.17,2.17.34-.05.12-.1.2-.16.26-.21.23-.31.54-.31.95v9.8h4.56v-13.75c-.05-.86-.1-1.6-.15-2.23Z"/>
  </g>
</svg>