<?xml version="1.0" encoding="UTF-8"?>
<svg id="logo" xmlns="http://www.w3.org/2000/svg" viewBox="0 0 41.19 41.19">
  <defs>
    <style>
      .cls-1-R5-1-R5-1 {
        fill: #fff;
      }

      .cls-2-R5-1 {
        fill: #04827e;
      }
    </style>
  </defs>
  <circle class="cls-2-R5-1" cx="20.59" cy="20.59" r="20.59"/>
  <g>
    <path class="cls-1-R5-1-R5-1" d="m4.53,32.06V10.03h3.62v22.02h-3.62Zm1.5-9.08v-3.47h7.58c.78,0,1.4-.28,1.86-.83.46-.55.7-1.28.71-2.19,0-.9-.23-1.62-.7-2.17-.47-.55-1.09-.83-1.87-.83h-7.58v-3.47h7.69c1.25,0,2.34.27,3.28.8.93.54,1.66,1.29,2.18,2.26s.78,2.1.78,3.41-.26,2.44-.79,3.41c-.53.97-1.25,1.72-2.18,2.26-.93.54-2.02.81-3.27.81h-7.69Zm10.5,9.08l-5.19-9.76,3.75-.7,5.78,10.46h-4.34Z"/>
    <path class="cls-1-R5-1-R5-1" d="m30.58,32.28c-1.71,0-3.14-.53-4.28-1.58-1.14-1.05-1.81-2.54-2.02-4.47v-.02h3.62v.02c.1.81.39,1.44.86,1.88.47.45,1.09.67,1.85.67.86,0,1.52-.29,1.99-.86.47-.57.7-1.37.7-2.4v-1.85c0-1.03-.22-1.83-.67-2.39-.45-.57-1.08-.85-1.9-.85-.57,0-1.08.15-1.54.45s-.82.73-1.08,1.27h-3.35v-12.12h11.52v3.47h-7.9v4.42c.35-.31.78-.55,1.29-.73.5-.17,1.01-.26,1.53-.26,1.82,0,3.22.59,4.22,1.76,1,1.18,1.5,2.83,1.5,4.97v1.85c0,2.15-.55,3.81-1.66,4.99-1.11,1.18-2.67,1.76-4.69,1.76Z"/>
  </g>
</svg>