<?xml version="1.0" encoding="UTF-8"?>
<svg id="logo" xmlns="http://www.w3.org/2000/svg" viewBox="0 0 41.19 41.19">
  <defs>
    <style>
      .cls-1-R6-1-R6-1 {
        fill: #fff;
      }
    </style>
  </defs>
  <circle cx="20.59" cy="20.59" r="20.59"/>
  <g>
    <path class="cls-1-R6-1-R6-1" d="m5.02,32.06V10.03h3.62v22.02h-3.62Zm1.5-9.08v-3.47h7.58c.78,0,1.4-.27,1.86-.83.46-.55.7-1.28.71-2.19,0-.9-.23-1.62-.7-2.17-.47-.55-1.09-.82-1.87-.82h-7.58v-3.47h7.69c1.25,0,2.34.27,3.28.8.93.53,1.66,1.29,2.18,2.25s.78,2.1.78,3.41-.26,2.44-.79,3.41c-.53.97-1.25,1.72-2.18,2.26-.93.54-2.02.81-3.27.81h-7.69Zm10.5,9.08l-5.19-9.76,3.75-.7,5.78,10.46h-4.34Z"/>
    <path class="cls-1-R6-1-R6-1" d="m30.6,32.28c-1.99,0-3.53-.58-4.63-1.74-1.1-1.16-1.65-2.79-1.65-4.9h0c0-.96.13-1.97.4-3.03.27-1.06.64-2.09,1.13-3.09l4.63-9.47h4l-5.45,10.97-.51-.54c.52-1,1.46-1.5,2.8-1.5,1.78,0,3.15.57,4.12,1.72s1.46,2.76,1.46,4.85h0c0,2.14-.55,3.8-1.65,4.97-1.1,1.18-2.65,1.76-4.65,1.76Zm0-3.48c.87,0,1.53-.26,1.99-.77.46-.52.69-1.25.69-2.21h0c0-1.08-.24-1.91-.71-2.49-.47-.58-1.16-.87-2.04-.87-.82,0-1.45.29-1.91.88-.46.59-.68,1.41-.68,2.48v.02c0,.96.23,1.69.7,2.2.46.51,1.12.76,1.97.76Z"/>
  </g>
</svg>