<?xml version="1.0" encoding="UTF-8"?>
<svg id="logo" xmlns="http://www.w3.org/2000/svg" viewBox="0 0 41.19 41.19">
  <defs>
    <style>
      .cls-1-20-1-20-1 {
        fill: #fff;
      }

      .cls-2-20-1 {
        fill: #92bbdd;
      }
    </style>
  </defs>
  <circle class="cls-2-20-1" cx="20.59" cy="20.59" r="20.59"/>
  <g>
    <path class="cls-1-20-1-20-1" d="m5.7,32.06v-3.43l8.15-10.79c.42-.55.75-1.12.98-1.7s.35-1.13.35-1.65v-.03c0-.79-.24-1.4-.72-1.83s-1.16-.65-2.05-.65-1.53.26-2.06.79c-.53.52-.85,1.27-.96,2.23v.02h-3.98v-.02c.23-2.14.96-3.79,2.19-4.96s2.82-1.76,4.78-1.76c2.16,0,3.83.53,5.02,1.6,1.19,1.07,1.78,2.58,1.78,4.54v.02c0,.95-.18,1.92-.54,2.9-.36.98-.86,1.89-1.5,2.74l-6.32,8.29h8.49v3.71H5.7Z"/>
    <path class="cls-1-20-1-20-1" d="m30.07,32.3c-2.29,0-4.01-.6-5.16-1.81-1.15-1.2-1.72-2.83-1.72-4.88v-10.71c0-2.08.58-3.72,1.74-4.91,1.16-1.19,2.88-1.78,5.14-1.78s4,.59,5.15,1.77,1.73,2.82,1.73,4.92v10.71c0,2.08-.58,3.72-1.74,4.91-1.16,1.19-2.88,1.78-5.14,1.78Zm0-3.71c1.07,0,1.84-.32,2.31-.95.47-.63.7-1.5.7-2.6v-9.57c0-1.11-.24-1.98-.7-2.61-.47-.63-1.24-.94-2.31-.94s-1.84.31-2.31.94-.71,1.5-.71,2.61v9.57c0,1.1.24,1.97.71,2.6.47.63,1.24.95,2.31.95Z"/>
  </g>
</svg>