<?xml version="1.0" encoding="UTF-8"?>
<svg id="logo" xmlns="http://www.w3.org/2000/svg" xmlns:xlink="http://www.w3.org/1999/xlink" viewBox="0 0 800 480">
  <defs>
    <style>
      .cls-1-A1-shadow {
        fill: url(#_未命名的渐变_25);
      }
    </style>
    <linearGradient id="_未命名的渐变_25" data-name="未命名的渐变 25" x1="0" y1="177" x2="78" y2="177" gradientUnits="userSpaceOnUse">
      <stop offset="0" stop-color="#adadad"/>
      <stop offset="1" stop-color="#fff"/>
    </linearGradient>
  </defs>
  <rect class="cls-1-A1-shadow" x="0" y="156" width="78" height="42"/>
  <g>
    <path d="m15.8,169.46v1.64h-.08c-.31-.1-.81-.16-1.48-.16h-.7v3.2c1.04-.26,1.93-.52,2.66-.78l-.16,1.64c-3.65.68-6.09,1.25-7.34,1.72l-.47-1.72c.31,0,.7-.05,1.17-.16v-3.83c0-.78-.05-1.51-.16-2.19,1.2.1,1.85.23,1.95.39,0,.1-.03.21-.08.31-.21.42-.29.89-.23,1.41v3.67l1.17-.23v-7.19h-1.02c-.36.05-.86.08-1.48.08,0-.57.03-1.04.08-1.41v-3.2l-.08-1.56c.83.05,1.43.08,1.8.08h2.66c.52,0,1.09-.03,1.72-.08-.05.68-.08,1.17-.08,1.48v2.97c0,.62.03,1.2.08,1.72h-.78c-.26,0-.47-.03-.62-.08h-.78v2.34h.7c.57,0,1.04-.03,1.41-.08h.16Zm-1.64-6.95h-3.05v3.36h3.05v-3.36Zm4.61-2.89c1.41.21,2.11.37,2.11.47,0,.05-.05.13-.16.23-.31.42-.65.94-1.02,1.56h2.73c1.04,0,1.8-.03,2.27-.08l.47-.08c-1.25,2.81-2.29,4.56-3.12,5.23,1.3.78,2.84,1.25,4.61,1.41-.62.83-.96,1.46-1.02,1.88-2.03-.62-3.59-1.41-4.69-2.34-.89.78-1.98,1.46-3.28,2.03.47.1.91.16,1.33.16h3.67c.52,0,1.09-.05,1.72-.16-.05.73-.08,1.33-.08,1.8v3.28c0,.62.03,1.3.08,2.03h-1.56l.08-1.33h-4.06l.08,1.48h-1.56v-1.09c0-.26.03-.6.08-1.02v-3.44c0,.16-.03-.16-.08-.94v-.55c-.16.05-.31.1-.47.16-.05.05-.1.08-.16.08-.26-.47-.68-.91-1.25-1.33,1.56-.42,3.07-1.12,4.53-2.11-.73-.88-1.22-1.8-1.48-2.73l-1.17,2.11c-.57-.21-1.07-.39-1.48-.55,1.46-2.08,2.42-4.14,2.89-6.17Zm.08,11.8v3.05h4.06v-3.05h-4.06Zm.39-8.2c.26.73.86,1.69,1.8,2.89.62-.62,1.28-1.59,1.95-2.89h-3.75Z"/>
    <path d="m30.8,170.79c1.77-.26,3.18-.55,4.22-.86l-.31,1.64c-.36.05-1.46.23-3.28.55-1.35.26-2.11.39-2.27.39l-.55-1.72c.94-.62,2.06-1.9,3.36-3.83-.47.1-1.22.29-2.27.55-.47.1-.78.16-.94.16l-.47-1.8c1.04-.83,2.14-2.84,3.28-6.02.05.05.13.1.23.16,1.41.42,2.06.7,1.95.86-.05.1-.16.21-.31.31-.31.16-.55.39-.7.7-.26.37-.6.91-1.02,1.64-.68,1.04-1.22,1.9-1.64,2.58l2.58-.47c.57-.83.99-1.69,1.25-2.58.26.16.5.29.7.39.99.37,1.43.6,1.33.7-.05.05-.1.1-.16.16-1.15.89-2.81,3.05-5,6.48Zm4.92,2.19l-.08,1.8c-1.09.26-2.5.57-4.22.94-1.35.26-2.21.44-2.58.55l-.55-2.03c1.72.05,4.19-.36,7.42-1.25Zm2.11-13.2c.62.1,1.12.16,1.48.16.52,0,.81.03.86.08,0,.1-.05.18-.16.23-.16.21-.26.55-.31,1.02-.1.47-.13,1.54-.08,3.2l3.2-.55c.68-.1,1.2-.21,1.56-.31l.55-.16.31,1.64c-.05.05-.13.08-.23.08-.16-.05-.83,0-2.03.16l-3.36.55v2.34l3.67-.7c.73-.1,1.35-.26,1.88-.47.16,0,.26-.03.31-.08l.31,1.8c-.05.05-.13.08-.23.08-.16-.1-.86-.08-2.11.08l-3.59.62c.21,1.09.52,2.06.94,2.89.83-.78,1.56-1.72,2.19-2.81,1.3.78,1.95,1.22,1.95,1.33-.05.1-.18.23-.39.39-.83.47-1.85,1.28-3.05,2.42.89,1.2,1.64,1.85,2.27,1.95.21-.42.34-1.09.39-2.03.47.52,1.12.91,1.95,1.17-.05.16-.1.29-.16.39-.52,1.61-1.02,2.45-1.48,2.5-1.15-.1-2.55-1.09-4.22-2.97-1.77,1.15-3.25,2-4.45,2.58-.1.05-.18.1-.23.16l-1.8-1.41c1.98-.37,3.91-1.22,5.78-2.58-.57-1.09-.96-2.32-1.17-3.67l-.86.23c-.83.21-1.51.39-2.03.55-.16.05-.23.05-.23,0l-.23-1.8h.08c.47.05,1.15,0,2.03-.16l1.09-.23c-.05-.16-.08-.42-.08-.78-.1-.68-.13-1.17-.08-1.48l-1.09.23c-.62.16-1.15.31-1.56.47-.16.05-.23.05-.23,0l-.23-1.56c-.05,0,.18-.03.7-.08.42-.05.81-.13,1.17-.23l1.25-.23c0-.99-.05-2.21-.16-3.67-.05-.42-.08-.86-.08-1.33Zm4.3.39c.68.68,1.3,1.48,1.88,2.42l-1.8.94c-.36-.88-.89-1.69-1.56-2.42l1.48-.94Z"/>
    <path d="m49.32,160.32c.78.16,2.42.21,4.92.16h5.31c3.49.05,5.36,0,5.62-.16-.1.99-.16,2.58-.16,4.77v7.5c-.05,2.81,0,4.38.16,4.69h-2.03c.16-.21.23-.57.23-1.09h-12.27c0,.57.05.94.16,1.09h-1.95c.05-.16.08-.6.08-1.33.05-.47.08-1.59.08-3.36v-7.73c0-1.51-.03-2.53-.08-3.05,0-.68-.03-1.17-.08-1.48Zm1.8,1.64v12.97h12.27v-12.97h-12.27Zm4.53.16c1.3.31,1.95.52,1.95.62,0,.05-.08.13-.23.23-.36.21-.62.44-.78.7h3.59c.89-.05,1.48-.08,1.8-.08-.99,1.51-2.08,2.84-3.28,3.98,1.2.73,2.68,1.15,4.45,1.25-.31.37-.6.86-.86,1.48-.1.21-.16.34-.16.39-2.08-.68-3.62-1.35-4.61-2.03-1.2.73-2.89,1.38-5.08,1.95-.16-.52-.5-1.04-1.02-1.56,1.77-.1,3.44-.57,5-1.41-.47-.36-.99-.96-1.56-1.8-.21.21-.57.57-1.09,1.09l-.31.39c-.42-.26-.94-.52-1.56-.78,1.67-.78,2.92-2.27,3.75-4.45Zm-1.72,10.62l.78-1.25c1.61.42,3.49,1.04,5.62,1.88l-1.02,1.41c-1.35-.68-3.15-1.35-5.39-2.03Zm2.19-3.12c1.2.21,2.53.6,3.98,1.17l-.94,1.33c-.83-.52-2.08-1.02-3.75-1.48l.7-1.02Zm3.2-4.77h-3.52l-.23.23c.73.94,1.41,1.54,2.03,1.8.68-.62,1.25-1.3,1.72-2.03Z"/>
  </g>
  <g>
    <path d="m10.04,188.09v4.63h-1.46v-10.72h4.98c2.34.04,3.54,1,3.57,2.87,0,1.21-.51,2.07-1.52,2.58.82.27,1.25.96,1.29,2.05l.12,1.93c-.08.59.1.94.53,1.05v.23h-1.82c-.08-.19-.14-.55-.18-1.05-.04-.55-.06-1.09-.06-1.64.04-1.29-.61-1.93-1.93-1.93h-3.52Zm0-4.92v3.69h3.4c1.45.04,2.17-.59,2.17-1.88-.04-1.17-.68-1.78-1.93-1.82h-3.63Z"/>
    <path d="m18.59,188.79c.16-2.66,1.37-4.04,3.63-4.16,2.23.12,3.44,1.5,3.63,4.16-.2,2.62-1.41,3.96-3.63,4.04-2.27-.08-3.48-1.43-3.63-4.04Zm1.35,0c.08,1.95.84,2.95,2.29,2.99,1.41-.04,2.17-1.03,2.29-2.99-.12-1.91-.88-2.91-2.29-2.99-1.45.08-2.21,1.07-2.29,2.99Z"/>
    <path d="m28.55,187.27h-1.23c.04-1.72,1.11-2.6,3.22-2.64,1.88.12,2.83.86,2.87,2.23v4.51c0,.35.16.51.47.47h.18c.12-.04.21-.06.29-.06v.94h-.35c-.16.04-.29.06-.41.06-.94,0-1.39-.37-1.35-1.11-.78.78-1.74,1.17-2.87,1.17-1.56-.08-2.38-.8-2.46-2.17,0-1.41.8-2.23,2.4-2.46l2.17-.23c.47-.04.7-.35.7-.94-.04-.82-.66-1.25-1.88-1.29-1.09.04-1.68.55-1.76,1.52Zm3.57,2.75v-1.29c-.31.2-1.04.37-2.17.53-1.13.12-1.68.53-1.64,1.23-.04.9.41,1.35,1.35,1.35,1.48-.08,2.3-.68,2.46-1.82Z"/>
    <path d="m42.15,181.99v10.72h-1.23v-1.05c-.47.78-1.21,1.17-2.23,1.17-2.23-.08-3.38-1.5-3.46-4.28.12-2.46,1.21-3.77,3.28-3.93.82,0,1.54.41,2.17,1.23.08.04.14.08.18.12v-3.98h1.29Zm-5.57,6.8c.04,1.99.74,3.01,2.11,3.05,1.37-.12,2.09-1,2.17-2.64-.04-2.19-.74-3.3-2.11-3.34-1.48.04-2.21,1.02-2.17,2.93Z"/>
    <path d="m43.96,192.71v-7.85h1.29v1.11c.59-.9,1.39-1.35,2.4-1.35.86,0,1.52.41,1.99,1.23,0,.04.02.06.06.06.66-.86,1.46-1.29,2.4-1.29,1.6.12,2.42,1.02,2.46,2.7v5.39h-1.35v-5.04c0-1.21-.49-1.82-1.46-1.82-1.13.12-1.74.82-1.82,2.11v4.75h-1.35v-5.39c-.04-.94-.45-1.43-1.23-1.46-1.37.12-2.05.98-2.05,2.58v4.28h-1.35Z"/>
    <path d="m57.62,187.27h-1.23c.04-1.72,1.11-2.6,3.22-2.64,1.88.12,2.83.86,2.87,2.23v4.51c0,.35.16.51.47.47h.18c.12-.04.21-.06.29-.06v.94h-.35c-.16.04-.29.06-.41.06-.94,0-1.39-.37-1.35-1.11-.78.78-1.74,1.17-2.87,1.17-1.56-.08-2.38-.8-2.46-2.17,0-1.41.8-2.23,2.4-2.46l2.17-.23c.47-.04.7-.35.7-.94-.04-.82-.66-1.25-1.88-1.29-1.09.04-1.68.55-1.76,1.52Zm3.57,2.75v-1.29c-.31.2-1.04.37-2.17.53-1.13.12-1.68.53-1.64,1.23-.04.9.41,1.35,1.35,1.35,1.48-.08,2.3-.68,2.46-1.82Z"/>
    <path d="m64.65,195.7v-10.84h1.23v1.11h.06v-.06c.59-.86,1.35-1.29,2.29-1.29,2.03.16,3.12,1.46,3.28,3.93-.12,2.77-1.27,4.2-3.46,4.28-.94-.04-1.62-.35-2.05-.94h-.06v3.81h-1.29Zm1.23-6.5c.04,1.68.76,2.56,2.17,2.64,1.33-.04,2.03-1.05,2.11-3.05,0-1.91-.72-2.89-2.17-2.93-1.41.04-2.11,1.15-2.11,3.34Z"/>
  </g>
</svg>