<?xml version="1.0" encoding="UTF-8"?>
<svg id="logo" xmlns="http://www.w3.org/2000/svg" xmlns:xlink="http://www.w3.org/1999/xlink" viewBox="0 0 800 480">
  <defs>
    <style>
      .cls-1-B1-shadow {
        fill: url(#_未命名的渐变_25);
      }
    </style>
    <linearGradient id="_未命名的渐变_25" data-name="未命名的渐变 25" x1="0" y1="175" x2="78" y2="175" gradientUnits="userSpaceOnUse">
      <stop offset="0" stop-color="#adadad"/>
      <stop offset="1" stop-color="#fff"/>
    </linearGradient>
  </defs>
  <rect class="cls-1-B1-shadow" x="0" y="154" width="78" height="42"/>
  <g>
    <path d="m23.3,162.07v4.45c.05.62.1,1.04.16,1.25h-2.03v-.55c0-.21.03-.47.08-.78h-9.14v5.62c-.05.68.26,1.07.94,1.17,1.35.21,3.41.26,6.17.16,2.08-.05,3.31-.21,3.67-.47.36-.31.6-1.04.7-2.19,0-.16.03-.29.08-.39.78.62,1.46.99,2.03,1.09-.52,1.56-1.09,2.53-1.72,2.89-.52.21-2,.34-4.45.39-3.23.05-5.83,0-7.81-.16-.94-.1-1.38-.7-1.33-1.8v-7.66c0-.68-.05-1.22-.16-1.64.89,0,1.43.03,1.64.08.31.05.47.13.47.23s-.03.23-.08.39c-.16.26-.21.52-.16.78h9.22v-4.45h-8.67c-.94,0-1.93.05-2.97.16h-.23v-1.72c.94.1,1.98.16,3.12.16h7.27c1.56,0,2.71-.05,3.44-.16-.1.42-.16.91-.16,1.48-.05.68-.08,1.22-.08,1.64Z"/>
    <path d="m29.08,158.95l.16.08c.21.05,1.09.08,2.66.08h3.75c1.56,0,2.47-.03,2.73-.08.16-.05.26-.08.31-.08v1.72h-.39c-.36-.05-1.25-.1-2.66-.16h-2.66c.94.37,1.48.68,1.64.94,0,.1-.1.18-.31.23-.21.1-.34.18-.39.23-.99,1.09-1.98,2.08-2.97,2.97l5.62-.47c-.52-.78-.99-1.46-1.41-2.03l1.33-.62c.78.68,1.69,2.03,2.73,4.06l-1.56.94c-.21-.47-.39-.91-.55-1.33l-2.73.31v2.81h1.56c.57,0,1.15-.03,1.72-.08.21-.05.34-.08.39-.08v1.64h-.31c-.36-.05-.96-.1-1.8-.16h-1.56v2.42l4.38-.62-.08,1.64-9.77,1.33-.39-1.8,4.3-.39v-2.58h-1.56c-.68,0-1.3.05-1.88.16h-.16v-1.64l.23.08c.31.05.91.08,1.8.08h1.56v-2.66c-1.88.21-2.92.37-3.12.47-.16.05-.23.05-.23,0l-.7-1.64.31-.16c.78-.26,1.33-.6,1.64-1.02.94-1.09,1.54-2.11,1.8-3.05h-.55c-1.25.05-2.08.1-2.5.16h-.39v-1.72Zm10.86,1.41c1.04.05,1.69.16,1.95.31,0,.05-.03.13-.08.23-.16.37-.23.78-.23,1.25v6.25c0,1.67.03,2.58.08,2.73l.08.16h-1.8v-.31c.1-.78.16-1.64.16-2.58v-5.7c-.05-.88-.1-1.67-.16-2.34Zm3.28-2.42c.68.05,1.22.1,1.64.16.36.05.57.1.62.16,0,.1-.05.26-.16.47-.1.37-.16.7-.16,1.02v13.59c0,.73-.21,1.2-.62,1.41-.26.21-1.25.42-2.97.62-.1-.73-.36-1.35-.78-1.88,2.03.16,2.89-.21,2.58-1.09v-11.64c0-.94-.05-1.8-.16-2.58v-.23Z"/>
    <path d="m52.6,166.53v5.31c1.61,1.04,3.25,1.64,4.92,1.8,1.72.05,4.64-.08,8.75-.39l-.78,1.95h-1.17c-4.64.05-7.66-.18-9.06-.7-.47-.16-1.15-.42-2.03-.78-.68-.31-1.09-.49-1.25-.55-.42,0-1.07.57-1.95,1.72l-.23.39-1.41-1.33c.36-.31,1.25-.99,2.66-2.03v-5.78h-.55c-.68,0-1.33.08-1.95.23h-.23v-1.88c0,.05.08.08.23.08.31.05.99.08,2.03.08h.23c1.09.05,1.75.03,1.95-.08-.1.26-.16.91-.16,1.95Zm-1.48-8.12c.16.31.34.6.55.86.68,1.09,1.2,1.95,1.56,2.58l-1.56.94c-.57-1.25-1.28-2.42-2.11-3.52l1.56-.86Zm7.58-.78c1.3.05,2,.13,2.11.23-.05.1-.1.26-.16.47-.21.31-.29.55-.23.7-.05.57-.08,1.12-.08,1.64v1.41h2.5c1.35,0,2.16-.05,2.42-.16.05-.05.1-.08.16-.08v1.72h-.31c-.21-.05-.96-.1-2.27-.16h-2.5c-.21,3.85-1.95,6.72-5.23,8.59-.52-.62-1.12-1.09-1.8-1.41,3.39-1.04,5.21-3.44,5.47-7.19h-2.11c-.94,0-1.8.05-2.58.16h-.08v-1.64l.31.08c.47.05,1.25.08,2.34.08h2.11v-3.44c0-.47-.03-.81-.08-1.02Zm2.73,8.52c.73.62,1.98,2.08,3.75,4.38l-1.56,1.25c-.94-1.61-2.11-3.18-3.52-4.69l1.33-.94Z"/>
  </g>
  <g>
    <path d="m14.43,187.61h-4.34l-1.11,3.11h-1.46l4.04-10.72h1.64l3.87,10.72h-1.58l-1.05-3.11Zm-3.87-1.29h3.34l-1.58-4.75h-.06l-1.7,4.75Z"/>
    <path d="m19.71,186.14v4.57h-1.35v-7.85h1.29v1.35c.59-1.05,1.33-1.58,2.23-1.58.04,0,.1.02.18.06h.18v1.41h-.53c-1.25.12-1.91.8-1.99,2.05Z"/>
    <path d="m24.63,186.14v4.57h-1.35v-7.85h1.29v1.35c.59-1.05,1.33-1.58,2.23-1.58.04,0,.1.02.18.06h.18v1.41h-.53c-1.25.12-1.91.8-1.99,2.05Z"/>
    <path d="m29.43,181.46h-1.35v-1.46h1.35v1.46Zm0,1.41v7.85h-1.35v-7.85h1.35Z"/>
    <path d="m34.06,189.31l2.23-6.45h1.41l-2.93,7.85h-1.41l-2.87-7.85h1.52l1.99,6.45h.06Z"/>
    <path d="m40.21,181.46h-1.35v-1.46h1.35v1.46Zm0,1.41v7.85h-1.35v-7.85h1.35Z"/>
    <path d="m48.48,185.38v5.33h-1.29v-4.8c.04-1.41-.53-2.09-1.7-2.05-1.37.12-2.05.98-2.05,2.58v4.28h-1.35v-7.85h1.29v1.11c.59-.86,1.39-1.31,2.4-1.35,1.76.08,2.66,1,2.7,2.75Z"/>
    <path d="m56.91,182.86v7.21c.04,2.5-1.15,3.77-3.57,3.81-1.88-.04-2.89-.82-3.05-2.34h1.35c.16.86.74,1.29,1.76,1.29,1.56,0,2.3-.88,2.23-2.64v-.35.06c-.47.59-1.17.9-2.11.94-2.23-.08-3.38-1.5-3.46-4.28.12-2.46,1.21-3.77,3.28-3.93.94,0,1.72.45,2.34,1.35v-1.11h1.23Zm-5.45,3.93c.04,1.99.74,3.01,2.11,3.05,1.33-.12,2.03-1,2.11-2.64,0-2.23-.7-3.34-2.11-3.34-1.48,0-2.19.98-2.11,2.93Z"/>
    <path d="m64.12,185.27h-1.23c.04-1.72,1.11-2.6,3.22-2.64,1.88.12,2.83.86,2.87,2.23v4.51c0,.35.16.51.47.47h.18c.12-.04.21-.06.29-.06v.94h-.35c-.16.04-.29.06-.41.06-.94,0-1.39-.37-1.35-1.11-.78.78-1.74,1.17-2.87,1.17-1.56-.08-2.38-.8-2.46-2.17,0-1.41.8-2.23,2.4-2.46l2.17-.23c.47-.04.7-.35.7-.94-.04-.82-.66-1.25-1.88-1.29-1.09.04-1.68.55-1.76,1.52Zm3.57,2.75v-1.29c-.31.2-1.04.37-2.17.53-1.13.12-1.68.53-1.64,1.23-.04.9.41,1.35,1.35,1.35,1.48-.08,2.3-.68,2.46-1.82Z"/>
    <path d="m74.14,183.98h-1.29v5.1c-.04.47.21.68.76.64h.53v1h-1c-1.13,0-1.68-.51-1.64-1.52v-5.21h-1v-1.11h1v-2.17h1.35v2.17h1.29v1.11Z"/>
  </g>
</svg>