<?xml version="1.0" encoding="UTF-8"?>
<svg id="logo" xmlns="http://www.w3.org/2000/svg" viewBox="0 0 55.28 41.19">
  <g>
    <path d="m8.02,26.77h-2.13v-13.97c-1.3,1.52-2.74,2.98-4.32,4.39-.38-.63-.81-1.29-1.3-1.97,3.47-2.91,6.19-6.13,8.14-9.66H1.03v-2h8.4c.51-1.12.95-2.28,1.32-3.46l2.24.51c-.36,1-.76,1.98-1.19,2.94h15.25v2H10.83c-.56,1.06-1.17,2.1-1.84,3.1h14.79v14.41c0,2.23-1.09,3.35-3.27,3.35-.95.02-2.4.03-4.35.03-.09-.61-.22-1.35-.41-2.21,1.66.13,2.99.19,4,.19,1.24,0,1.86-.61,1.86-1.83v-1.92h-13.61v6.1Zm13.61-16.22h-13.61v3.21h13.61v-3.21Zm-13.61,8.29h13.61v-3.24h-13.61v3.24Z"/>
    <path d="m31.2,12.74h2.92v-5.05h2.05v5.05h3.1v2h-3.1v3.48c1.01-.2,2.04-.41,3.1-.62-.04.83-.05,1.52-.05,2.08-.99.18-2.01.37-3.05.57v6.72h-2.05v-6.32c-1.82.36-3.72.75-5.7,1.16l-.46-2.16c1.96-.29,4.01-.63,6.16-1.03v-3.89h-5.18v-1.7c.77-2.23,1.51-4.62,2.21-7.18h-2.81v-1.89h3.29c.31-1.21.61-2.45.92-3.72l2.19.43c-.31,1.13-.6,2.23-.89,3.29h5.34v1.89h-5.88c-.72,2.5-1.42,4.8-2.11,6.88Zm8.1-6.48h3.05V.35h2.11v5.91h6.13v16.65c0,.7.23,1.05.7,1.05h.35c.5,0,.82-.5.94-1.51.16-1.17.3-2.79.41-4.86.61.31,1.26.56,1.94.76-.11,1.57-.27,3.13-.49,4.7-.29,1.98-1.13,2.97-2.54,2.97h-1.24c-1.42,0-2.13-.95-2.13-2.86v-14.9h-4.08c-.04,5.29-.31,9.05-.81,11.28-.58,2.81-1.78,5.33-3.62,7.56-.52-.63-1.11-1.21-1.75-1.73,1.67-1.73,2.8-3.98,3.38-6.75.43-1.84.67-5.29.7-10.37h-3.05v-2Z"/>
  </g>
  <g>
    <path d="m5.45,39.84h-.74v-5.11H1.83v5.11h-.74v-11.35h.74v4.93h2.88v-4.93h.74v11.35Z"/>
    <path d="m6.56,34.3c0-1.83.25-3.29.75-4.37s1.17-1.62,2.02-1.62c.79,0,1.43.53,1.91,1.59.48,1.06.72,2.44.72,4.14,0,1.84-.25,3.3-.74,4.38s-1.16,1.62-1.99,1.62-1.46-.53-1.95-1.59-.73-2.44-.73-4.14Zm.77-.12c0,1.37.18,2.47.53,3.3.35.83.81,1.24,1.38,1.24.61,0,1.09-.4,1.43-1.19.35-.79.52-1.9.52-3.33s-.17-2.59-.51-3.39c-.34-.8-.8-1.19-1.4-1.19s-1.05.42-1.41,1.26-.54,1.94-.54,3.3Z"/>
    <path d="m17.28,35.21c0,3.21-.73,4.81-2.19,4.81s-2.1-1.55-2.1-4.64v-6.89h.74v6.83c0,2.27.48,3.41,1.43,3.41s1.39-1.1,1.39-3.3v-6.94h.74v6.72Z"/>
    <path d="m18.42,37.7c.17.3.41.55.7.75.29.2.57.29.83.29.8,0,1.2-.57,1.2-1.7,0-.32-.04-.6-.13-.86-.09-.25-.2-.48-.35-.67s-.43-.5-.84-.9c-.57-.57-.95-1.09-1.13-1.58-.18-.49-.27-1.04-.27-1.67,0-.94.19-1.69.57-2.24.38-.55.86-.83,1.44-.83s.98.14,1.25.41v1.6c-.34-.47-.78-.71-1.3-.71-.35,0-.63.15-.85.44-.22.29-.33.7-.33,1.21,0,.46.08.83.23,1.12s.48.68.99,1.18c.56.53.95,1.06,1.17,1.6.22.53.33,1.13.33,1.79,0,1-.18,1.76-.54,2.29-.36.53-.87.8-1.51.8-.23,0-.49-.06-.79-.19-.3-.12-.52-.28-.66-.46v-1.67Z"/>
    <path d="m27.39,39.84h-.74v-5.11h-2.88v5.11h-.74v-11.35h.74v4.93h2.88v-4.93h.74v11.35Z"/>
    <path d="m33.33,39.84h-.81l-.58-3.11h-2.37l-.55,3.11h-.81l2.17-11.35h.79l2.17,11.35Zm-1.62-4.39l-.86-4.72c-.03-.15-.06-.42-.09-.79h-.02c-.03.34-.06.61-.09.79l-.85,4.72h1.91Z"/>
    <path d="m38.81,39.84h-.87l-2.87-8.83c-.08-.25-.15-.5-.2-.74h-.02c.02.25.03.78.03,1.59v7.98h-.73v-11.35h.92l2.79,8.67c.13.41.21.67.24.78h.01c-.02-.32-.04-.87-.04-1.66v-7.8h.73v11.35Z"/>
    <path d="m45.51,39.84h-3v-11.35h.74v10.05h2.27v1.3Z"/>
    <path d="m50.53,39.84h-.87l-.95-3.15c-.19-.63-.36-1.06-.52-1.29-.16-.23-.34-.34-.56-.34h-.53v4.78h-.74v-11.35h1.74c.55,0,.99.27,1.3.8.31.53.47,1.28.47,2.23,0,1.57-.42,2.59-1.27,3.06v.04c.16.13.29.32.41.56.11.24.26.66.44,1.25l1.07,3.4Zm-3.42-10.06v4.01h.87c.34,0,.61-.2.82-.59s.31-.9.31-1.54c0-.59-.1-1.05-.29-1.38s-.47-.5-.83-.5h-.88Z"/>
    <path d="m54.52,29.79h-1.64v10.04h-.74v-10.04h-1.64v-1.3h4.02v1.3Z"/>
  </g>
</svg>