<?xml version="1.0" encoding="UTF-8"?>
<svg id="logo" xmlns="http://www.w3.org/2000/svg" viewBox="0 0 41.19 41.19">
  <defs>
    <style>
      .cls-1-R4-1-R4-1 {
        fill: #fff;
      }

      .cls-2-R4-1 {
        fill: #5292ef;
      }
    </style>
  </defs>
  <circle class="cls-2-R4-1" cx="20.59" cy="20.59" r="20.59"/>
  <g>
    <path class="cls-1-R4-1-R4-1" d="m4.16,32.06V10.03h3.62v22.02h-3.62Zm1.5-9.08v-3.47h7.58c.78,0,1.4-.28,1.86-.83.46-.55.7-1.28.71-2.19,0-.9-.23-1.62-.7-2.17-.47-.55-1.09-.83-1.87-.83h-7.58v-3.47h7.69c1.25,0,2.34.27,3.28.8s1.66,1.29,2.18,2.26.78,2.1.78,3.41-.26,2.44-.79,3.41c-.53.97-1.25,1.72-2.18,2.26-.93.54-2.02.81-3.27.81h-7.69Zm10.5,9.08l-5.19-9.76,3.75-.7,5.78,10.46h-4.34Z"/>
    <path class="cls-1-R4-1-R4-1" d="m23.61,28.68v-3.24l7.08-15.38h3.94l-6.9,15.2h10.34v3.42h-14.46Zm9.19,3.39v-12.96h3.57v12.96h-3.57Z"/>
  </g>
</svg>