<?xml version="1.0" encoding="UTF-8"?>
<svg id="logo" xmlns="http://www.w3.org/2000/svg" viewBox="0 0 41.19 41.19">
  <defs>
    <style>
      .cls-1-S5-1-S5-1 {
        fill: #fff;
      }

      .cls-2-S5-1 {
        fill: #0f317c;
      }
    </style>
  </defs>
  <circle class="cls-2-S5-1" cx="20.59" cy="20.59" r="20.59"/>
  <g>
    <path class="cls-1-S5-1-S5-1" d="m12.86,32.28c-1.06,0-2.08-.1-3.05-.31-.97-.21-1.88-.51-2.73-.92s-1.63-.9-2.35-1.5l1.92-2.89c.85.72,1.8,1.26,2.85,1.63,1.05.37,2.17.55,3.35.55,1.47,0,2.62-.26,3.43-.79.81-.52,1.22-1.27,1.22-2.22v-.02c0-.74-.2-1.3-.61-1.7-.41-.39-.95-.68-1.61-.87s-1.39-.35-2.18-.48c-.84-.13-1.69-.29-2.55-.49-.86-.2-1.65-.5-2.38-.92s-1.3-1.02-1.74-1.8c-.44-.78-.66-1.82-.66-3.13v-.02c0-2.1.69-3.72,2.08-4.87s3.35-1.73,5.88-1.73c1.18,0,2.36.2,3.54.58,1.18.39,2.31.96,3.38,1.72l-1.76,2.98c-.85-.62-1.71-1.08-2.59-1.38s-1.74-.46-2.57-.46c-1.39,0-2.47.25-3.23.76s-1.14,1.23-1.14,2.16v.02c0,.77.22,1.35.67,1.75s1.03.69,1.76.89c.72.19,1.5.37,2.34.54.83.16,1.65.36,2.47.59.82.23,1.57.56,2.25,1,.68.43,1.22,1.03,1.63,1.79.41.76.61,1.75.61,2.97v.03c0,2.08-.72,3.69-2.16,4.82-1.44,1.13-3.46,1.7-6.08,1.7Z"/>
    <path class="cls-1-S5-1-S5-1" d="m31.02,32.28c-1.72,0-3.14-.53-4.28-1.58-1.13-1.05-1.81-2.55-2.02-4.47h0s3.62-.01,3.62-.01h0c.1.82.39,1.45.86,1.9s1.09.67,1.85.67c.86,0,1.52-.29,1.99-.86.47-.57.7-1.37.7-2.4v-1.85c0-1.03-.22-1.83-.67-2.39-.45-.57-1.08-.85-1.9-.85-.57,0-1.08.15-1.54.45s-.82.73-1.08,1.27h-3.35v-12.12h11.52v3.47h-7.9v4.42c.35-.31.78-.55,1.29-.73.5-.17,1.01-.26,1.53-.26,1.82,0,3.22.59,4.22,1.76s1.5,2.83,1.5,4.97v1.85c0,2.15-.55,3.81-1.66,4.99-1.1,1.18-2.67,1.76-4.68,1.76Z"/>
  </g>
</svg>