<?xml version="1.0" encoding="UTF-8"?>
<svg id="logo" xmlns="http://www.w3.org/2000/svg" viewBox="0 0 41.19 41.19">
  <defs>
    <style>
      .cls-1 {
        fill: #fff;
      }

      .cls-2 {
        fill: #4cd6b2;
      }
    </style>
  </defs>
  <circle class="cls-2" cx="20.59" cy="20.59" r="20.59"/>
  <g>
    <path class="cls-1" d="m15.11,8.51v23.55h-3.87V12.91l-3.11,1.57v-4.07l3.43-1.91h3.55Z"/>
    <path class="cls-1" d="m27.02,32.3c-2.29,0-4.01-.6-5.16-1.81-1.15-1.2-1.72-2.83-1.72-4.88v-10.71c0-2.08.58-3.72,1.74-4.91,1.16-1.19,2.88-1.78,5.14-1.78s4,.59,5.15,1.77,1.73,2.82,1.73,4.92v10.71c0,2.08-.58,3.72-1.74,4.91-1.16,1.19-2.88,1.78-5.14,1.78Zm0-3.71c1.07,0,1.84-.32,2.31-.95.47-.63.7-1.5.7-2.6v-9.57c0-1.11-.24-1.98-.7-2.61-.47-.63-1.24-.94-2.31-.94s-1.84.31-2.31.94-.71,1.5-.71,2.61v9.57c0,1.1.24,1.97.71,2.6.47.63,1.24.95,2.31.95Z"/>
  </g>
</svg>