<?xml version="1.0" encoding="UTF-8"?>
<svg id="logo" xmlns="http://www.w3.org/2000/svg" viewBox="0 0 41.19 41.19">
  <defs>
    <style>
      .cls-1 {
        fill: #fff;
      }

      .cls-2 {
        fill: #ddd197;
      }
    </style>
  </defs>
  <circle class="cls-2" cx="20.59" cy="20.59" r="20.59"/>
  <g>
    <path class="cls-1" d="m15.75,8.51v23.55h-3.87V12.91l-3.11,1.57v-4.07l3.43-1.91h3.55Z"/>
    <path class="cls-1" d="m27.01,32.3c-2.13,0-3.78-.62-4.96-1.86s-1.77-2.99-1.77-5.25v-.02c0-1.01.14-2.09.43-3.22.29-1.13.69-2.23,1.21-3.3l4.96-10.14h4.28l-5.83,11.74-.55-.58c.56-1.07,1.56-1.6,3-1.6,1.9,0,3.37.61,4.41,1.84,1.04,1.23,1.56,2.96,1.56,5.19v.02c0,2.28-.59,4.05-1.77,5.3-1.18,1.26-2.83,1.89-4.97,1.89Zm0-3.72c.93,0,1.64-.28,2.13-.83s.74-1.34.74-2.37v-.02c0-1.14-.25-2.03-.76-2.65s-1.24-.93-2.19-.93c-.87,0-1.55.31-2.04.94-.49.63-.73,1.51-.73,2.66v.02c0,1.03.25,1.81.75,2.36.5.55,1.2.82,2.11.82Z"/>
  </g>
</svg>