<?xml version="1.0" encoding="UTF-8"?>
<svg id="logo" xmlns="http://www.w3.org/2000/svg" viewBox="0 0 41.19 41.19">
  <defs>
    <style>
      .cls-1 {
        fill: #fff;
      }

      .cls-2 {
        fill: #0f5d7c;
      }
    </style>
  </defs>
  <circle class="cls-2" cx="20.59" cy="20.59" r="20.59"/>
  <g>
    <path class="cls-1" d="m14.94,8.51v23.55h-3.87V12.91l-3.11,1.57v-4.07l3.43-1.91h3.55Z"/>
    <path class="cls-1" d="m27.02,32.3c-1.47,0-2.75-.27-3.85-.81s-1.95-1.3-2.55-2.28c-.6-.98-.91-2.13-.91-3.45v-.39c0-1.18.31-2.28.92-3.32s1.44-1.82,2.48-2.35c-.86-.45-1.57-1.11-2.11-1.96-.54-.85-.81-1.75-.81-2.7v-.58c0-1.87.62-3.37,1.86-4.49,1.24-1.13,2.89-1.69,4.96-1.69s3.71.56,4.96,1.69c1.24,1.13,1.86,2.63,1.86,4.49v.58c0,.97-.27,1.88-.82,2.73s-1.26,1.49-2.15,1.94c1.05.53,1.88,1.31,2.51,2.35s.94,2.14.94,3.32v.39c0,1.32-.3,2.47-.91,3.45-.6.98-1.46,1.74-2.55,2.28s-2.38.81-3.85.81Zm0-3.72c1.04,0,1.87-.3,2.5-.9s.95-1.38.95-2.36v-.23c0-.95-.32-1.71-.95-2.29-.63-.58-1.47-.87-2.5-.87s-1.87.29-2.5.87c-.63.58-.95,1.35-.95,2.31v.24c0,.97.32,1.75.95,2.34s1.47.88,2.5.88Zm0-10.37c.88,0,1.6-.28,2.14-.84s.81-1.31.81-2.25v-.23c0-.87-.27-1.58-.81-2.11-.54-.53-1.25-.79-2.14-.79s-1.6.26-2.14.79c-.54.53-.81,1.24-.81,2.12v.24c0,.92.27,1.66.81,2.22s1.25.84,2.14.84Z"/>
  </g>
</svg>