<?xml version="1.0" encoding="UTF-8"?>
<svg id="logo" xmlns="http://www.w3.org/2000/svg" viewBox="0 0 41.19 41.19">
  <defs>
    <style>
      .cls-1 {
        fill: #fff;
      }

      .cls-2 {
        fill: #840c3d;
      }
    </style>
  </defs>
  <circle class="cls-2" cx="20.59" cy="20.59" r="20.59"/>
  <g>
    <path class="cls-1" d="m15.75,8.51v23.55h-3.87V12.91l-3.11,1.57v-4.06l3.43-1.91h3.55Z"/>
    <path class="cls-1" d="m23.35,32.06l5.52-11.69.39.58c-.28.51-.7.87-1.25,1.1-.55.23-1.19.34-1.91.34-1.74,0-3.14-.63-4.21-1.89s-1.6-2.93-1.6-5.01v-.02c0-2.29.59-4.06,1.76-5.32,1.18-1.26,2.83-1.89,4.97-1.89s3.79.63,4.96,1.9c1.17,1.27,1.76,3.06,1.76,5.39v.02c0,.96-.15,1.99-.45,3.1-.3,1.11-.7,2.21-1.2,3.29l-4.62,10.09h-4.13Zm3.68-13.25c.91,0,1.61-.3,2.11-.91.5-.61.75-1.45.75-2.54v-.02c0-1.07-.25-1.89-.75-2.47-.5-.58-1.2-.87-2.11-.87s-1.62.29-2.12.87c-.5.58-.75,1.41-.75,2.48v.02c0,1.09.25,1.94.75,2.54.5.6,1.2.9,2.12.9Z"/>
  </g>
</svg>