<?xml version="1.0" encoding="UTF-8"?>
<svg id="logo" xmlns="http://www.w3.org/2000/svg" viewBox="0 0 41.19 41.19">
  <defs>
    <style>
      .cls-1 {
        fill: #fff;
      }
    </style>
  </defs>
  <circle cx="20.59" cy="20.59" r="20.59"/>
  <g>
    <path class="cls-1" d="m6.28,32.06v-3.43l8.15-10.79c.42-.55.75-1.12.98-1.7s.35-1.13.35-1.65v-.03c0-.79-.24-1.4-.72-1.83-.48-.43-1.16-.65-2.05-.65s-1.53.26-2.06.79-.85,1.27-.96,2.23v.02h-3.98v-.02c.23-2.14.96-3.79,2.19-4.96,1.23-1.17,2.82-1.76,4.78-1.76,2.16,0,3.83.53,5.02,1.6,1.19,1.07,1.78,2.58,1.78,4.53v.02c0,.95-.18,1.92-.54,2.9-.36.98-.86,1.89-1.5,2.74l-6.32,8.29h8.49v3.71H6.28Z"/>
    <path class="cls-1" d="m23.41,32.06v-3.43l8.15-10.79c.42-.55.75-1.12.98-1.7s.35-1.13.35-1.65v-.03c0-.79-.24-1.4-.72-1.83s-1.16-.65-2.05-.65-1.53.26-2.06.79c-.53.52-.85,1.27-.96,2.23v.02h-3.98v-.02c.23-2.14.96-3.79,2.19-4.96,1.23-1.17,2.82-1.76,4.78-1.76,2.16,0,3.83.53,5.02,1.6,1.19,1.07,1.78,2.58,1.78,4.53v.02c0,.95-.18,1.92-.54,2.9-.36.98-.86,1.89-1.5,2.74l-6.32,8.29h8.49v3.71h-13.6Z"/>
  </g>
</svg>