<?xml version="1.0" encoding="UTF-8"?>
<svg id="logo" xmlns="http://www.w3.org/2000/svg" viewBox="0 0 41.19 41.19">
  <defs>
    <style>
      .cls-1 {
        fill: #fff;
      }

      .cls-2 {
        fill: #ffcf03;
      }
    </style>
  </defs>
  <circle class="cls-2" cx="20.59" cy="20.59" r="20.59"/>
  <path class="cls-1" d="m21.33,32.3c-1.37,0-2.58-.25-3.64-.75-1.05-.5-1.89-1.22-2.53-2.16-.63-.94-1.01-2.09-1.14-3.44h3.97c.13.87.46,1.53,1,1.96s1.24.65,2.09.65c.97,0,1.72-.26,2.25-.79.53-.52.79-1.27.79-2.23v-.63c0-1.04-.23-1.84-.7-2.41-.47-.57-1.14-.85-2.02-.85h-1.83v-3.69h1.83c.75,0,1.32-.25,1.72-.74.41-.49.61-1.18.61-2.07v-.57c0-.83-.22-1.47-.66-1.92-.44-.45-1.06-.67-1.85-.67-.72,0-1.34.23-1.84.69-.5.46-.85,1.15-1.03,2.08h-3.95c.27-2.07,1.03-3.68,2.27-4.81,1.24-1.13,2.79-1.7,4.63-1.7,2.05,0,3.64.54,4.77,1.6,1.13,1.07,1.69,2.58,1.69,4.52v.55c0,1.13-.3,2.12-.89,2.96s-1.44,1.46-2.53,1.87c1.21.27,2.15.88,2.81,1.84.66.96,1,2.17,1,3.65v.55c0,2.06-.6,3.66-1.79,4.79-1.19,1.13-2.88,1.7-5.04,1.7Z"/>
</svg>