<?xml version="1.0" encoding="UTF-8"?>
<svg id="logo" xmlns="http://www.w3.org/2000/svg" viewBox="0 0 41.19 41.19">
  <defs>
    <style>
      .cls-1 {
        fill: #fff;
      }

      .cls-2 {
        fill: #22bad3;
      }
    </style>
  </defs>
  <circle class="cls-2" cx="20.59" cy="20.59" r="20.59"/>
  <path class="cls-1" d="m21.48,32.3c-1.83,0-3.36-.56-4.58-1.69s-1.94-2.72-2.16-4.79v-.02h3.87v.02c.11.86.42,1.54.92,2.02.51.48,1.17.72,1.98.72.92,0,1.63-.31,2.13-.92.5-.61.75-1.47.75-2.57v-1.98c0-1.1-.24-1.96-.72-2.56s-1.16-.91-2.03-.91c-.6,0-1.15.16-1.64.49s-.88.78-1.16,1.36h-3.58v-12.97h12.33v3.71h-8.45v4.73c.38-.33.84-.59,1.38-.78.54-.18,1.08-.28,1.63-.28,1.94,0,3.45.63,4.52,1.89,1.07,1.26,1.6,3.03,1.6,5.32v1.98c0,2.3-.59,4.08-1.77,5.34-1.18,1.26-2.85,1.89-5.01,1.89Z"/>
</svg>