<?xml version="1.0" encoding="UTF-8"?>
<svg id="A1" xmlns="http://www.w3.org/2000/svg" viewBox="0 0 800 480">
  <defs>
    <style>
      .cls-1 {
        stroke: #daa5f9;
      }

      .cls-1, .cls-2, .cls-3, .cls-4, .cls-5 {
        fill: none;
        stroke-linecap: round;
        stroke-miterlimit: 10;
        stroke-width: 4px;
      }

      .cls-2 {
        stroke: #5292ef;
      }

      .cls-3 {
        stroke: #efd61d;
      }

      .cls-4 {
        stroke: #06964b;
      }

      .cls-5 {
        stroke: #530ac6;
      }
    </style>
  </defs>
  <g id="A1-line">
    <g id="LineR4">
      <path class="cls-2" d="m340,335v-160c0-4.4,3.6-8,8-8h123c4.4,0,8,3.6,8,8v34.82"/>
    </g>
    <g id="lineS6">
      <path class="cls-1" d="m415,249v78c0,4.4-3.6,8-8,8H52"/>
    </g>
    <g id="lineR9">
      <path class="cls-3" d="m188,248v-73c0-4.4,3.6-8,8-8h91.01"/>
    </g>
    <g id="line6">
      <path class="cls-4" d="m122,248.5h454.55c4.4,0,10.55,2.55,13.66,5.66l24.66,24.66c3.11,3.11,9.26,5.66,13.66,5.66h35.02"/>
    </g>
    <g id="line4">
      <rect class="cls-5" x="532" y="167" width="225" height="73" rx="8" ry="8"/>
    </g>
  </g>
</svg>