<?xml version="1.0" encoding="UTF-8"?>
<svg id="logo" xmlns="http://www.w3.org/2000/svg" viewBox="0 0 41.19 41.19">
  <defs>
    <style>
      .cls-1 {
        fill: #fff;
      }

      .cls-2 {
        fill: #a00000;
      }
    </style>
  </defs>
  <circle class="cls-2" cx="20.59" cy="20.59" r="20.59"/>
  <g>
    <path class="cls-1" d="m8.8,28.2c-1.04,0-1.93-.21-2.69-.64-.75-.43-1.34-1.04-1.74-1.83-.41-.79-.61-1.74-.61-2.82v-3.9c0-1.09.2-2.04.61-2.83.41-.79.99-1.4,1.74-1.83.76-.43,1.65-.64,2.69-.64.86,0,1.63.18,2.32.55.69.37,1.27.89,1.72,1.57.46.68.77,1.49.94,2.44h-2.4c-.12-.47-.3-.87-.56-1.21-.25-.33-.55-.59-.9-.78-.35-.18-.72-.27-1.13-.27-.81,0-1.46.27-1.93.81-.47.54-.71,1.27-.71,2.19v3.9c0,.92.24,1.65.71,2.19.47.53,1.11.8,1.93.8.61,0,1.15-.2,1.62-.59.48-.39.8-.95.97-1.67h2.4c-.18.94-.49,1.76-.95,2.44-.46.68-1.03,1.21-1.72,1.57-.69.37-1.46.55-2.32.55Z"/>
    <path class="cls-1" d="m16.23,28.06v-14.2h2.32v14.2h-2.32Zm1.17,0v-2.21h4.19c.83,0,1.44-.18,1.83-.53.39-.35.58-.82.58-1.42v-.03c0-.62-.18-1.12-.53-1.47-.36-.36-.9-.54-1.64-.54h-4.43v-2.19h4.43c.64,0,1.14-.16,1.47-.47.34-.31.51-.76.51-1.36s-.18-1.03-.54-1.33c-.36-.3-.88-.45-1.58-.45h-4.3v-2.21h4.52c1.39,0,2.45.34,3.17,1.03.72.68,1.08,1.62,1.08,2.82,0,.77-.22,1.43-.67,2-.45.56-1.12.92-2.01,1.08.91.13,1.62.5,2.12,1.12.5.62.75,1.37.75,2.26v.03c0,1.19-.38,2.13-1.13,2.83-.75.69-1.8,1.04-3.13,1.04h-4.69Z"/>
    <path class="cls-1" d="m29.14,28.06v-14.2h2.33v14.2h-2.33Zm1.35,0v-2.24h3.31c.96,0,1.71-.24,2.24-.73.53-.48.79-1.17.79-2.05v-4.18c0-.89-.26-1.57-.79-2.05-.53-.48-1.28-.72-2.24-.72h-3.31v-2.24h3.25c1.75,0,3.11.44,4.06,1.33s1.44,2.14,1.44,3.75v4.02c0,1.04-.21,1.94-.63,2.71s-1.04,1.35-1.86,1.76c-.82.41-1.83.62-3.02.62h-3.24Z"/>
  </g>
</svg>