<?xml version="1.0" encoding="UTF-8"?>
<svg id="logo" xmlns="http://www.w3.org/2000/svg" viewBox="0 0 55.28 41.19">
  <g>
    <path d="m10.37,20.13c0,.79.04,1.54.13,2.24-1.89,1.01-3.33,1.87-4.32,2.59-.34.23-.75.57-1.21,1l-1.35-1.73c.58-.56.86-1.27.86-2.13v-5.18H.95v-1.86h3.54v-3.64h-2.05v-1.77c-.18.3-.36.59-.54.88-.38-.63-.79-1.22-1.24-1.78C2.25,6.28,3.51,3.43,4.43.21l2.05.57c-.4,1.19-.84,2.33-1.31,3.43h5.03v1.86h-5.87c-.58,1.21-1.19,2.38-1.85,3.48h7.13v1.86h-3.02v3.64h3.59v1.86h-3.59v5.59c1.04-.61,2.3-1.4,3.78-2.38Zm.46-6.88h7c.08-1.11.14-2.92.19-5.45h-4.25c-.43,1.46-.87,2.79-1.32,4-.86-.32-1.57-.57-2.11-.73,1.19-2.68,2.07-5.65,2.65-8.91l2.13.43c-.27,1.15-.54,2.25-.82,3.29h3.75c.02-1.61.03-3.45.04-5.51h2.11c0,2.06,0,3.9-.03,5.51h6.1v1.92h-6.11c-.04,2.51-.09,4.33-.16,5.45h7.19v1.92h-6.59c1.04,4.34,3.29,7.45,6.75,9.34-.02.02-.05.06-.11.14-.7.79-1.19,1.41-1.46,1.86-3.23-2.1-5.42-5.21-6.57-9.33-.99,4.02-3.59,7.28-7.81,9.76-.34-.52-.86-1.16-1.54-1.92,4.33-2.26,6.9-5.54,7.71-9.85h-6.74v-1.92Z"/>
    <path d="m29.72,12.82h1.78v9.97c.73-.11,1.48-.22,2.24-.34v-12.34h-2.16v.89h-1.94V1.86h8.85v8.26h-2.86v4.56h2.81v1.84h-2.81v5.65c1.12-.18,2.28-.37,3.46-.58-.04.61-.05,1.27-.05,1.97-3.51.59-6.98,1.19-10.42,1.78l-.54-2.11c.54-.06,1.09-.13,1.65-.2v-10.22Zm6.83-4.53V3.69h-4.97v4.59h4.97Zm2.21.16c1.89-2.32,3.53-5.1,4.91-8.34l2,.73c-.39.81-.77,1.58-1.16,2.32h8.53v1.81c-1.18,2.22-2.74,4.27-4.68,6.15,1.77,1.21,3.96,2.12,6.55,2.73-.36.79-.66,1.54-.89,2.24-2.83-.96-5.22-2.17-7.19-3.63-1.96,1.52-4.34,2.88-7.14,4.06-.18-.36-.54-1-1.08-1.92,2.44-.87,4.65-2.04,6.63-3.51-1.09-1.08-2.07-2.43-2.94-4.06-.73,1.12-1.45,2.13-2.17,3.01-.43-.58-.88-1.11-1.35-1.59Zm2,7.96h11.74v10.5h-2.02v-1.3h-7.69v1.3h-2.02v-10.5Zm9.72,1.89h-7.69v5.43h7.69v-5.43Zm.24-13.31h-7.21c-.05.09-.11.18-.16.27.91,1.83,2.04,3.36,3.4,4.59,1.62-1.45,2.94-3.07,3.97-4.86Z"/>
  </g>
  <g>
    <path d="m8.24,40.04h-1.46l-1.59-3.15c-.32-.63-.61-1.06-.87-1.29-.26-.23-.58-.34-.95-.34h-.89v4.78h-1.24v-11.35h2.93c.93,0,1.67.27,2.19.8.53.53.79,1.28.79,2.23,0,1.57-.71,2.59-2.13,3.06v.04c.26.13.49.32.68.56s.44.66.75,1.25l1.8,3.4Zm-5.77-10.06v4.01h1.46c.57,0,1.03-.2,1.38-.59s.53-.9.53-1.54c0-.59-.16-1.05-.48-1.38s-.79-.5-1.41-.5h-1.48Z"/>
    <path d="m17.06,40.04h-1.37l-.98-3.11h-4l-.92,3.11h-1.37l3.66-11.35h1.33l3.66,11.35Zm-2.73-4.39l-1.45-4.72c-.04-.15-.09-.42-.15-.79h-.03c-.04.34-.1.61-.15.79l-1.44,4.72h3.22Z"/>
    <path d="m19.68,28.69v11.35h-1.24v-11.35h1.24Z"/>
    <path d="m27.24,40.04h-5.06v-11.35h1.24v10.05h3.82v1.3Z"/>
    <path d="m39.88,28.69l-2.69,11.35h-1.44l-1.93-8.17c-.09-.37-.14-.76-.15-1.17h-.03c-.02.41-.08.79-.17,1.16l-1.95,8.19h-1.43l-2.78-11.35h1.37l1.96,8.57c.09.39.14.77.15,1.16h.04c.02-.29.09-.68.21-1.16l2.08-8.57h1.22l1.98,8.64c.07.28.12.64.16,1.08h.03c.02-.32.08-.69.18-1.11l1.88-8.61h1.33Z"/>
    <path d="m48.32,40.04h-1.37l-.98-3.11h-4l-.92,3.11h-1.37l3.66-11.35h1.33l3.66,11.35Zm-2.73-4.39l-1.45-4.72c-.04-.15-.09-.42-.15-.79h-.03c-.04.34-.1.61-.15.79l-1.44,4.72h3.22Z"/>
    <path d="m55.03,28.69l-3.16,7.17v4.17h-1.25v-4.14l-3.08-7.21h1.42l2.08,5.03s.08.25.23.72h.02c.05-.21.13-.44.25-.72l2.17-5.03h1.32Z"/>
  </g>
</svg>