<?xml version="1.0" encoding="UTF-8"?>
<svg id="logo" xmlns="http://www.w3.org/2000/svg" viewBox="0 0 41.19 41.19">
  <defs>
    <style>
      .cls-1 {
        fill: #fff;
      }

      .cls-2 {
        fill: #d6135a;
      }
    </style>
  </defs>
  <circle class="cls-2" cx="20.59" cy="20.59" r="20.59"/>
  <g>
    <path class="cls-1" d="m12.21,9.92c.26.8.44,1.63.54,2.49h4.1c1.29,0,2.37-.06,3.25-.17v1.89c-.62-.06-1.7-.11-3.25-.17H6.1c-1.39.06-2.4.12-3.02.17v-1.89c.88.12,1.91.17,3.09.17h4.72c-.16-.69-.41-1.38-.77-2.06l2.09-.43Zm6.73,13.23v4.12c.31,2.23-.8,3.29-3.33,3.18-.1-.8-.34-1.52-.7-2.15,1.8.34,2.6-.23,2.4-1.72v-4.47H6.03v5.16c0,1.26.03,2.15.08,2.66h-1.86c.05-.52.1-1.4.15-2.66v-4.73c-.05-1.15-.1-1.86-.15-2.15l.08.09c.36.06,1.19.09,2.47.09h9.75c1.24,0,2.09-.06,2.55-.17-.1.86-.15,1.78-.15,2.75Zm-1.93-6.45v.95c0,.69.05,1.29.15,1.8-.15-.06-.77-.11-1.86-.17h-7.27c-.67.06-1.31.12-1.93.17,0-.69.03-1.26.08-1.72v-.95c-.05-.23-.08-.52-.08-.86v-.86l.08.09h10.75c.1-.06.18-.09.23-.09-.1.46-.15,1-.15,1.63Zm-1.62,6.45c-.1.17-.15.77-.15,1.8v1.12c0,.69.05,1.29.15,1.8h-.23c-.52-.06-1.03-.09-1.55-.09h-4.18c-.31.06-.62.09-.93.09h-.85v-.26c0-.57.03-1.06.08-1.46v-1.12c-.05-.69-.08-1.2-.08-1.55v-.34c.57.12,1.21.17,1.93.17h3.95c.72,0,1.34-.06,1.86-.17Zm-7.66-6.7v1.55h7.81v-1.55h-7.81Zm1.55,8.16v1.8h4.41v-1.8h-4.41Z"/>
    <path class="cls-1" d="m22.84,23.16c.67.4,1.16.69,1.47.86-.41.57-1.13,1.75-2.17,3.52-.21.34-.34.54-.39.6-.52-.29-1.01-.54-1.47-.77,1.19-1.78,2.04-3.18,2.55-4.21Zm4.56-8.59c1.03.4,1.6.72,1.7.95,0,.06-.05.14-.16.26-.15.12-.28.23-.39.34-.26.29-.57.8-.93,1.55h.46c1.03.06,1.78,0,2.24-.17v1.72c-.21-.06-.46-.09-.77-.09-.21-.06-.7-.09-1.47-.09h-1.55v2.15h1.32c1.03.06,1.75,0,2.17-.17v1.63c-.21-.06-.44-.09-.7-.09-.26-.06-.75-.09-1.47-.09h-1.32v5.33c.26.92-.75,1.55-3.02,1.89-.1-1.09-.31-1.83-.62-2.23,1.65.29,2.35-.06,2.09-1.03v-3.95h-1.86c-.67,0-1.13.03-1.39.09-.31,0-.57.03-.77.09v-1.63c.51.12,1.24.17,2.17.17h1.86v-2.15h-1.86c-1.13.06-1.96.12-2.47.17v-1.72c.62.17,1.42.23,2.4.17h3.33c.51-1.49.85-2.52,1-3.09Zm-.77-4.12c.21.86.36,1.6.46,2.23h.7c.93.06,1.7,0,2.32-.17v1.89c-.36-.17-1.13-.26-2.32-.26h-4.1c-1.03,0-1.81.09-2.32.26v-1.89c.62.17,1.37.23,2.24.17h1.86c-.21-.74-.44-1.35-.7-1.8l1.86-.43Zm-2.63,4.12c.41.75.77,1.49,1.08,2.23l-1.62.6c-.21-.74-.49-1.46-.85-2.15l1.39-.69Zm4.1,8.94c.82,1.2,1.39,2.09,1.7,2.66l-1.32,1.03c-.41-1.09-.98-2.03-1.7-2.84l1.31-.86Zm9.13-12.46c.77,1.15,1.16,1.83,1.16,2.06-.05.06-.23.09-.54.09-.46-.06-.88-.06-1.24,0-.31.12-.9.2-1.78.26-.67.06-1.39.14-2.17.26v3.87h3.94c.77.06,1.39,0,1.86-.17v1.89c-.52-.11-1.16-.17-1.93-.17h-.39v8.34c-.05.97,0,1.8.15,2.49h-1.7v-.17c.1-.75.15-1.55.15-2.41v-8.25h-2.09c-.21,4.98-1.06,8.59-2.55,10.83-.67-.46-1.29-.72-1.86-.77,2.01-1.89,2.99-5.38,2.94-10.48v-3.52c-.05-1.03-.1-1.78-.15-2.23v-.69c2.58-.06,4.64-.46,6.19-1.2Z"/>
  </g>
</svg>