<?xml version="1.0" encoding="UTF-8"?>
<svg id="logo" xmlns="http://www.w3.org/2000/svg" viewBox="0 0 41.19 41.19">
  <defs>
    <style>
      .cls-1 {
        fill: #fff;
      }

      .cls-2 {
        fill: #eadc8b;
      }
    </style>
  </defs>
  <circle class="cls-2" cx="20.59" cy="20.59" r="20.59"/>
  <g>
    <path class="cls-1" d="m4.97,32.06V10.03h3.62v22.02h-3.62Zm1.5-9.08v-3.47h7.58c.78,0,1.4-.27,1.86-.82.46-.55.7-1.28.71-2.19,0-.9-.24-1.62-.7-2.17s-1.09-.83-1.87-.83h-7.58v-3.47h7.69c1.25,0,2.34.27,3.28.8.93.54,1.66,1.29,2.18,2.25s.78,2.1.78,3.41-.26,2.44-.79,3.41c-.52.97-1.25,1.72-2.18,2.26-.93.54-2.02.81-3.27.81h-7.69Zm10.5,9.08l-5.19-9.76,3.75-.7,5.78,10.46h-4.34Z"/>
    <path class="cls-1" d="m24.39,32.06v-3.21l7.61-10.08c.39-.51.7-1.04.92-1.59s.33-1.06.33-1.54v-.03c0-.74-.22-1.31-.67-1.71-.45-.4-1.09-.61-1.92-.61s-1.43.25-1.92.73c-.5.49-.79,1.18-.89,2.08h0s-3.72.01-3.72.01h0c.21-2.01.89-3.56,2.04-4.65,1.15-1.09,2.64-1.64,4.46-1.64,2.02,0,3.58.5,4.69,1.5s1.67,2.41,1.67,4.24h0c0,.9-.17,1.81-.51,2.72-.34.92-.8,1.77-1.4,2.56l-5.9,7.75h7.93v3.47h-12.71Z"/>
  </g>
</svg>