<?xml version="1.0" encoding="UTF-8"?>
<svg id="logo" xmlns="http://www.w3.org/2000/svg" viewBox="0 0 55.28 41.19">
  <g>
    <path d="m5.16,18.7v-1.97l1.17-2.78H.46v-1.97h26.75v1.97H8.56l-1.16,2.81h16.12c-.22,2.09-.42,3.8-.62,5.13-.43,2.93-2.12,4.4-5.08,4.4-2.07,0-4.28-.04-6.64-.11-.11-.61-.26-1.39-.46-2.35,2.57.22,4.81.32,6.72.32s3.04-.87,3.29-2.62c.13-.72.25-1.67.38-2.83H5.16ZM4.64,1.53h18.33v8.91h-2.13v-1.11H6.78v1.24h-2.13V1.53Zm16.2,1.94H6.78v3.91h14.06v-3.91Z"/>
    <path d="m31.53,16.6c1.6-.23,3.49-.54,5.67-.92-.11.67-.19,1.36-.24,2.08-3.01.47-5.64.89-7.91,1.27l-.43-2.02c1.25-1.34,2.62-3.25,4.12-5.74-1.46.08-2.83.18-4.12.31l-.51-1.84c1.67-2.29,3.39-5.49,5.16-9.61l2.05.81c-1.85,3.65-3.45,6.53-4.78,8.64,1.07-.04,2.16-.08,3.25-.12.62-1.11,1.26-2.31,1.93-3.6l2,1c-2.2,3.8-4.26,7.04-6.18,9.74Zm-3.43,6.24c3.17-.68,6.37-1.43,9.61-2.24-.05.72-.08,1.4-.08,2.05-3,.7-5.98,1.45-8.93,2.24l-.59-2.05Zm8.04,1.92c3.38-1.21,6.31-2.62,8.79-4.22-.64-1.63-1.14-3.56-1.51-5.79l-5.76.81-.32-1.94,5.82-.81c-.15-1.26-.27-2.6-.34-4.04l-4.89.55-.32-1.94,5.1-.57c-.1-1.87-.19-4.02-.27-6.45h2.21c.04,2.32.1,4.39.18,6.21l9.03-1.03.24,1.92-9.19,1.07c.06,1.42.17,2.75.31,3.99l9.31-1.31.24,1.92-9.3,1.32c.31,1.86.72,3.48,1.24,4.86,1.91-1.44,3.5-3.01,4.76-4.72l1.75,1.32c-1.62,1.95-3.5,3.72-5.64,5.3.69,1.24,1.52,2.19,2.48,2.85,1.19.7,1.95.34,2.29-1.08.23-1.15.42-2.43.57-3.83.83.36,1.52.62,2.08.78-.31,1.94-.61,3.41-.92,4.4-.52,1.53-1.41,2.29-2.67,2.29s-2.53-.54-3.64-1.62c-.73-.69-1.38-1.55-1.96-2.58-2.47,1.6-5.25,2.99-8.33,4.17-.32-.5-.77-1.12-1.35-1.84ZM46.92,1.78l1.16-1.35c1.28.81,2.65,1.78,4.1,2.92l-1.3,1.57c-1.49-1.28-2.82-2.32-3.97-3.13Z"/>
  </g>
  <g>
    <path d="m6.86,39.84H1.64v-11.35h1.28v10.05h3.94v1.3Z"/>
    <path d="m8.04,28.88c0-.25.08-.47.23-.64.15-.17.34-.26.56-.26s.42.08.57.26.23.39.23.64-.08.46-.23.63c-.16.17-.35.25-.57.25s-.41-.08-.56-.25c-.15-.17-.22-.38-.22-.63Zm.15,10.96v-8.1h1.25v8.1h-1.25Z"/>
    <path d="m17.65,39.84h-1.25v-4.61c0-1.66-.53-2.5-1.59-2.5-.55,0-1,.23-1.35.7s-.53,1.06-.53,1.78v4.62h-1.25v-8.1h1.25v1.34h.03c.53-1.02,1.31-1.53,2.32-1.53.78,0,1.37.28,1.77.85.4.57.61,1.4.61,2.49v4.95Z"/>
    <path d="m25.5,36.15h-4.95c.02.86.23,1.53.62,2,.39.47.94.71,1.64.71.79,0,1.52-.29,2.18-.87v1.28c-.62.5-1.45.75-2.47.75s-1.82-.37-2.39-1.11c-.57-.74-.86-1.77-.86-3.09,0-1.24.31-2.26.94-3.07.63-.81,1.41-1.21,2.34-1.21s1.65.34,2.17,1.02c.52.68.78,1.63.78,2.86v.73Zm-1.25-1.15c0-.73-.16-1.3-.45-1.7-.3-.4-.72-.6-1.26-.6-.5,0-.93.21-1.29.64-.36.42-.59.98-.69,1.66h3.69Z"/>
    <path d="m38.42,39.84h-1.51l-1.64-3.15c-.33-.63-.63-1.06-.9-1.29-.27-.23-.6-.34-.98-.34h-.92v4.78h-1.28v-11.35h3.02c.96,0,1.72.27,2.26.8.54.53.82,1.28.82,2.23,0,1.57-.73,2.59-2.2,3.06v.04c.27.13.51.32.71.56s.46.66.77,1.25l1.85,3.4Zm-5.95-10.06v4.01h1.51c.58,0,1.06-.2,1.42-.59s.55-.9.55-1.54c0-.59-.17-1.05-.5-1.38s-.82-.5-1.45-.5h-1.53Z"/>
    <path d="m39.09,36.67c0-.65.17-1.26.51-1.81.34-.55.78-.95,1.32-1.18-.43-.28-.77-.63-1.02-1.07-.25-.43-.38-.91-.38-1.41,0-.54.12-1.03.36-1.47.24-.44.58-.79,1-1.05.43-.25.9-.38,1.42-.38s1,.12,1.42.38c.43.25.76.6,1,1.04.24.45.36.94.36,1.48,0,.5-.12.96-.37,1.4-.25.44-.58.8-1.02,1.08.54.24.97.63,1.31,1.19.34.55.5,1.15.5,1.8s-.13,1.22-.4,1.73c-.27.51-.65.91-1.14,1.19-.49.28-1.05.43-1.67.43s-1.17-.14-1.65-.43c-.49-.28-.87-.68-1.14-1.19s-.41-1.09-.41-1.73Zm1.23-.07c0,.67.18,1.21.54,1.62.36.41.84.61,1.44.61s1.07-.21,1.44-.62c.37-.41.56-.95.56-1.61,0-.62-.19-1.15-.57-1.58-.38-.43-.86-.64-1.43-.64s-1.05.21-1.42.63c-.38.42-.56.95-.56,1.59Zm.36-5.29c0,.51.16.94.47,1.31.32.36.7.55,1.16.55s.83-.18,1.16-.55c.33-.37.49-.8.49-1.3s-.16-.95-.47-1.3c-.31-.36-.71-.53-1.18-.53s-.86.17-1.17.52c-.31.35-.46.79-.46,1.32Z"/>
    <path d="m55.19,39.84h-1.41l-1.01-3.11h-4.12l-.95,3.11h-1.41l3.77-11.35h1.37l3.77,11.35Zm-2.82-4.39l-1.5-4.72c-.05-.15-.1-.42-.15-.79h-.03c-.05.34-.1.61-.16.79l-1.48,4.72h3.32Z"/>
  </g>
</svg>