<?xml version="1.0" encoding="UTF-8"?>
<svg id="logo" xmlns="http://www.w3.org/2000/svg" viewBox="0 0 41.19 41.19">
  <defs>
    <style>
      .cls-1 {
        fill: #fff;
      }

      .cls-2 {
        fill: #0eacdd;
      }
    </style>
  </defs>
  <circle class="cls-2" cx="20.59" cy="20.59" r="20.59"/>
  <g>
    <path class="cls-1" d="m3.55,28.06v-14.21h2.33v14.21h-2.33Zm.97-5.86v-2.24h4.89c.5,0,.9-.18,1.2-.53.3-.35.45-.82.46-1.41,0-.58-.15-1.05-.45-1.4-.3-.35-.71-.53-1.21-.53h-4.89v-2.24h4.96c.81,0,1.51.17,2.11.52.6.34,1.07.83,1.41,1.46.33.62.5,1.36.5,2.2s-.17,1.57-.51,2.2-.81,1.11-1.41,1.46c-.6.35-1.3.52-2.11.52h-4.96Zm6.78,5.86l-3.35-6.3,2.42-.45,3.73,6.75h-2.8Z"/>
    <path class="cls-1" d="m20.55,28.2c-.89,0-1.66-.16-2.32-.49-.66-.33-1.17-.79-1.54-1.38-.36-.59-.55-1.29-.55-2.08v-.23c0-.71.19-1.38.56-2s.87-1.1,1.49-1.42c-.52-.27-.94-.67-1.27-1.18-.33-.51-.49-1.06-.49-1.63v-.35c0-1.13.37-2.03,1.12-2.71.75-.68,1.75-1.02,2.99-1.02s2.24.34,2.99,1.02c.75.68,1.12,1.58,1.12,2.71v.35c0,.59-.17,1.13-.49,1.64-.33.51-.76.9-1.29,1.17.63.32,1.14.79,1.51,1.42s.57,1.29.57,2v.23c0,.79-.18,1.49-.55,2.08-.36.59-.88,1.05-1.54,1.38-.66.33-1.43.49-2.32.49Zm0-2.25c.62,0,1.13-.18,1.51-.54s.57-.83.57-1.42v-.14c0-.57-.19-1.03-.57-1.38-.38-.35-.88-.52-1.51-.52s-1.13.17-1.51.52c-.38.35-.57.81-.57,1.39v.15c0,.59.19,1.06.57,1.41.38.36.88.53,1.51.53Zm0-6.25c.53,0,.96-.17,1.29-.51.33-.34.49-.79.49-1.36v-.14c0-.53-.16-.95-.49-1.27-.33-.32-.75-.48-1.29-.48s-.96.16-1.29.48c-.33.32-.49.75-.49,1.28v.15c0,.55.16,1,.49,1.34.33.34.75.51,1.29.51Z"/>
    <path class="cls-1" d="m26.47,28.06l5.33-14.2h1.7l5.33,14.2h-2.51l-3.67-10.58-3.67,10.58h-2.51Zm2.51-2.7v-2.24h7.47v2.24h-7.47Z"/>
  </g>
</svg>