<?xml version="1.0" encoding="UTF-8"?>
<svg id="logo" xmlns="http://www.w3.org/2000/svg" viewBox="0 0 41.19 41.19">
  <defs>
    <style>
      .cls-1 {
        fill: #fff;
      }

      .cls-2 {
        fill: #0eacdd;
      }
    </style>
  </defs>
  <circle class="cls-2" cx="20.59" cy="20.59" r="20.59"/>
  <g>
    <path class="cls-1" d="m3.57,28.06v-14.21h2.33v14.21h-2.33Zm.97-5.86v-2.24h4.89c.5,0,.9-.18,1.2-.53s.45-.83.46-1.41c0-.58-.15-1.05-.45-1.4s-.71-.53-1.21-.53h-4.89v-2.24h4.96c.81,0,1.51.17,2.11.52.6.35,1.07.83,1.41,1.46.33.62.5,1.36.5,2.2s-.17,1.57-.51,2.2-.81,1.11-1.41,1.46-1.3.52-2.11.52h-4.96Zm6.78,5.86l-3.35-6.3,2.42-.45,3.73,6.75h-2.8Z"/>
    <path class="cls-1" d="m20.57,28.2c-.89,0-1.66-.16-2.32-.49-.66-.33-1.17-.78-1.54-1.38-.36-.59-.55-1.29-.55-2.08v-.23c0-.71.19-1.38.56-2s.87-1.1,1.49-1.42c-.52-.27-.94-.67-1.27-1.18-.33-.51-.49-1.06-.49-1.63v-.35c0-1.13.37-2.03,1.12-2.71s1.75-1.02,2.99-1.02,2.24.34,2.99,1.02,1.12,1.58,1.12,2.71v.35c0,.59-.17,1.13-.49,1.65-.33.51-.76.9-1.29,1.17.63.32,1.14.79,1.51,1.42s.57,1.29.57,2v.23c0,.79-.18,1.49-.55,2.08-.36.59-.88,1.05-1.54,1.38-.66.33-1.43.49-2.32.49Zm0-2.25c.62,0,1.13-.18,1.51-.54s.57-.83.57-1.42v-.14c0-.57-.19-1.03-.57-1.38s-.88-.52-1.51-.52-1.13.17-1.51.52-.57.81-.57,1.39v.15c0,.59.19,1.06.57,1.41s.88.53,1.51.53Zm0-6.25c.53,0,.96-.17,1.29-.51.33-.34.49-.79.49-1.36v-.14c0-.53-.16-.95-.49-1.27-.33-.32-.75-.48-1.29-.48s-.96.16-1.29.48c-.33.32-.49.75-.49,1.28v.15c0,.55.16,1,.49,1.34.33.34.75.51,1.29.51Z"/>
    <path class="cls-1" d="m27.85,28.06v-14.2h2.32v14.2h-2.32Zm1.17,0v-2.21h4.19c.83,0,1.44-.18,1.83-.53.39-.35.58-.82.58-1.42v-.03c0-.62-.18-1.12-.53-1.47-.36-.36-.9-.54-1.64-.54h-4.43v-2.19h4.43c.64,0,1.14-.16,1.47-.47s.51-.76.51-1.36-.18-1.03-.54-1.33-.89-.45-1.58-.45h-4.3v-2.21h4.52c1.39,0,2.45.34,3.17,1.03.72.68,1.08,1.62,1.08,2.82,0,.77-.22,1.43-.67,2s-1.12.92-2.01,1.08c.91.13,1.62.5,2.12,1.12.5.62.75,1.37.75,2.26v.03c0,1.19-.38,2.13-1.13,2.83s-1.8,1.04-3.13,1.04h-4.69Z"/>
  </g>
</svg>