<?xml version="1.0" encoding="UTF-8"?>
<svg id="logo" xmlns="http://www.w3.org/2000/svg" viewBox="0 0 41.19 41.19">
  <defs>
    <style>
      .cls-1 {
        fill: #fff;
      }

      .cls-2 {
        fill: #141466;
      }
    </style>
  </defs>
  <circle class="cls-2" cx="20.59" cy="20.59" r="20.59"/>
  <g>
    <path class="cls-1" d="m13.29,32.28c-1.06,0-2.08-.1-3.05-.31-.97-.21-1.88-.51-2.73-.92s-1.63-.9-2.35-1.5l1.92-2.89c.85.72,1.8,1.26,2.85,1.63,1.05.37,2.17.55,3.35.55,1.47,0,2.62-.26,3.43-.79.81-.52,1.22-1.27,1.22-2.22v-.02c0-.74-.2-1.3-.61-1.7-.41-.39-.95-.68-1.61-.87s-1.39-.35-2.18-.48c-.84-.13-1.69-.29-2.55-.49-.86-.2-1.66-.5-2.38-.92-.72-.42-1.3-1.02-1.74-1.8s-.66-1.82-.66-3.13v-.02c0-2.1.69-3.72,2.08-4.87s3.35-1.73,5.88-1.73c1.18,0,2.36.2,3.54.58,1.18.39,2.31.96,3.38,1.72l-1.76,2.98c-.85-.62-1.71-1.08-2.59-1.38s-1.74-.46-2.57-.46c-1.39,0-2.47.25-3.23.76-.76.51-1.14,1.23-1.14,2.16v.02c0,.77.22,1.35.67,1.75s1.03.69,1.76.89c.72.19,1.5.37,2.34.54.83.16,1.65.36,2.47.59.82.23,1.57.56,2.25,1,.68.43,1.22,1.03,1.63,1.79.41.76.61,1.75.61,2.97v.03c0,2.08-.72,3.69-2.16,4.82-1.44,1.13-3.46,1.7-6.08,1.7Z"/>
    <path class="cls-1" d="m24.83,32.06v-3.21l7.61-10.08c.39-.51.7-1.04.92-1.59s.33-1.06.33-1.54v-.03c0-.74-.22-1.31-.67-1.71-.45-.4-1.09-.61-1.91-.61s-1.43.25-1.92.73c-.49.49-.79,1.18-.89,2.08h0s-3.72.01-3.72.01h0c.21-2.01.89-3.56,2.04-4.65,1.15-1.09,2.64-1.64,4.47-1.64,2.02,0,3.58.5,4.69,1.5,1.11,1,1.67,2.41,1.67,4.24h0c0,.9-.17,1.81-.51,2.72-.34.92-.81,1.77-1.4,2.56l-5.9,7.75h7.93v3.47h-12.71Z"/>
  </g>
</svg>