<?xml version="1.0" encoding="UTF-8"?>
<svg id="logo" xmlns="http://www.w3.org/2000/svg" viewBox="0 0 41.19 41.19">
  <defs>
    <style>
      .cls-1 {
        fill: #fff;
      }

      .cls-2 {
        fill: #426aa5;
      }
    </style>
  </defs>
  <circle class="cls-2" cx="20.59" cy="20.59" r="20.59"/>
  <g>
    <path class="cls-1" d="m12.48,32.28c-1.06,0-2.08-.1-3.05-.31s-1.88-.51-2.73-.92c-.85-.4-1.63-.9-2.35-1.5l1.92-2.89c.85.72,1.8,1.26,2.85,1.63s2.17.55,3.35.55c1.47,0,2.62-.26,3.43-.79s1.22-1.27,1.22-2.23h0c0-.75-.2-1.32-.61-1.71-.41-.39-.95-.68-1.61-.87s-1.39-.35-2.18-.48c-.84-.13-1.69-.3-2.55-.49-.86-.2-1.66-.5-2.38-.92-.72-.42-1.3-1.02-1.74-1.8-.44-.78-.66-1.82-.66-3.13h0c0-2.11.69-3.74,2.08-4.89,1.39-1.15,3.35-1.72,5.88-1.72,1.18,0,2.36.19,3.54.58,1.18.39,2.31.96,3.38,1.72l-1.76,2.98c-.85-.62-1.71-1.08-2.59-1.38-.88-.31-1.74-.46-2.57-.46-1.39,0-2.47.25-3.23.76s-1.14,1.23-1.14,2.16h0c0,.78.22,1.36.67,1.76.45.4,1.03.69,1.76.89.72.19,1.5.37,2.34.54.83.16,1.65.36,2.48.59.82.23,1.57.57,2.25,1,.68.43,1.22,1.03,1.63,1.79.41.76.61,1.75.61,2.97v.03c0,2.08-.72,3.69-2.16,4.82-1.44,1.13-3.46,1.7-6.08,1.7Z"/>
    <path class="cls-1" d="m24.05,28.68v-3.24l7.08-15.38h3.94l-6.9,15.2h10.34v3.42h-14.46Zm9.19,3.39v-12.96h3.57v12.96h-3.57Z"/>
  </g>
</svg>