<?xml version="1.0" encoding="UTF-8"?>
<svg id="logo" xmlns="http://www.w3.org/2000/svg" viewBox="0 0 41.19 41.19">
  <defs>
    <style>
      .cls-1 {
        fill: #fff;
      }

      .cls-2 {
        fill: #a84dff;
      }
    </style>
  </defs>
  <circle class="cls-2" cx="20.59" cy="20.59" r="20.59"/>
  <g>
    <path class="cls-1" d="m13.5,32.28c-1.06,0-2.08-.1-3.05-.31-.97-.21-1.88-.51-2.73-.92-.85-.4-1.63-.9-2.35-1.5l1.92-2.89c.85.72,1.8,1.26,2.85,1.63s2.17.55,3.35.55c1.47,0,2.62-.26,3.43-.79.81-.53,1.22-1.27,1.22-2.23h0c0-.75-.21-1.32-.61-1.71-.41-.39-.95-.68-1.61-.87-.67-.19-1.39-.35-2.18-.48-.84-.13-1.69-.29-2.55-.49-.86-.2-1.66-.5-2.38-.92-.72-.42-1.3-1.02-1.74-1.8-.44-.78-.66-1.82-.66-3.12v-.02c0-2.1.69-3.72,2.08-4.87s3.35-1.73,5.88-1.73c1.18,0,2.36.19,3.54.58s2.31.96,3.38,1.72l-1.76,2.98c-.85-.62-1.71-1.08-2.59-1.39s-1.74-.46-2.57-.46c-1.39,0-2.47.26-3.23.76-.76.51-1.14,1.23-1.14,2.16v.02c0,.77.22,1.35.67,1.75s1.03.69,1.76.88c.72.19,1.5.37,2.34.54.83.16,1.65.36,2.47.59.82.23,1.57.57,2.25,1,.68.43,1.22,1.03,1.63,1.79.41.76.61,1.75.61,2.97v.03c0,2.08-.72,3.69-2.16,4.82-1.44,1.14-3.46,1.7-6.08,1.7Z"/>
    <path class="cls-1" d="m37.03,10.05v2.76l-5.31,19.25h-3.89l5.24-18.54h-4.69v3.24h-3.62v-6.71h12.28Z"/>
  </g>
</svg>