<?xml version="1.0" encoding="UTF-8"?>
<svg id="logo" xmlns="http://www.w3.org/2000/svg" viewBox="0 0 41.19 41.19">
  <defs>
    <style>
      .cls-1 {
        fill: #fff;
      }

      .cls-2 {
        fill: #ff9203;
      }
    </style>
  </defs>
  <circle class="cls-2" cx="20.59" cy="20.59" r="20.59"/>
  <g>
    <path class="cls-1" d="m12.58,32.28c-1.06,0-2.08-.1-3.05-.31-.97-.21-1.88-.51-2.73-.92s-1.63-.9-2.35-1.5l1.92-2.89c.85.72,1.8,1.26,2.85,1.63,1.05.37,2.17.55,3.35.55,1.47,0,2.62-.26,3.43-.79.81-.52,1.22-1.27,1.22-2.22v-.02c0-.74-.21-1.3-.61-1.7s-.95-.68-1.61-.87-1.39-.35-2.18-.48c-.84-.13-1.69-.29-2.55-.49-.86-.2-1.66-.5-2.38-.92s-1.3-1.02-1.74-1.8c-.44-.78-.66-1.82-.66-3.13v-.02c0-2.1.69-3.72,2.08-4.87,1.39-1.15,3.35-1.73,5.88-1.73,1.18,0,2.36.2,3.54.58,1.18.39,2.31.96,3.38,1.72l-1.76,2.98c-.85-.62-1.71-1.08-2.59-1.38s-1.74-.46-2.57-.46c-1.39,0-2.47.25-3.23.76s-1.14,1.23-1.14,2.16v.02c0,.77.22,1.35.67,1.75s1.04.69,1.76.89c.72.19,1.5.37,2.34.54.83.16,1.65.36,2.48.59.82.23,1.57.56,2.25,1,.68.43,1.22,1.03,1.63,1.79.41.76.61,1.75.61,2.97v.03c0,2.08-.72,3.69-2.16,4.82-1.44,1.13-3.46,1.7-6.08,1.7Z"/>
    <path class="cls-1" d="m31.05,32.28c-1.37,0-2.57-.25-3.59-.76-1.02-.5-1.82-1.22-2.38-2.13-.57-.92-.85-1.99-.85-3.22v-.36c0-1.1.29-2.13.86-3.1s1.35-1.7,2.32-2.19c-.81-.42-1.46-1.04-1.97-1.83-.5-.8-.76-1.64-.76-2.53v-.54c0-1.75.58-3.15,1.74-4.2s2.71-1.58,4.63-1.58,3.47.53,4.63,1.58,1.74,2.46,1.74,4.2v.54c0,.91-.25,1.76-.76,2.55s-1.18,1.4-2.01,1.81c.98.49,1.76,1.23,2.35,2.19.58.97.88,2,.88,3.1v.36c0,1.23-.28,2.31-.85,3.22-.57.92-1.36,1.63-2.38,2.13-1.02.5-2.22.76-3.59.76Zm0-3.48c.97,0,1.75-.28,2.34-.84.59-.56.89-1.29.89-2.2v-.21c0-.89-.3-1.6-.89-2.14s-1.37-.81-2.34-.81-1.75.27-2.34.81c-.59.54-.88,1.26-.88,2.16v.23c0,.91.29,1.64.88,2.19.59.55,1.37.83,2.34.83Zm0-9.69c.83,0,1.49-.26,2-.79.5-.53.76-1.23.76-2.1v-.21c0-.82-.25-1.47-.76-1.97-.5-.49-1.17-.74-2-.74s-1.49.25-2,.74c-.5.5-.76,1.16-.76,1.98v.23c0,.86.25,1.55.76,2.07.5.52,1.17.79,2,.79Z"/>
  </g>
</svg>