<?xml version="1.0" encoding="UTF-8"?>
<svg id="logo" xmlns="http://www.w3.org/2000/svg" viewBox="0 0 41.19 41.19">
  <defs>
    <style>
      .cls-1 {
        fill: #c2db0f;
      }

      .cls-2 {
        fill: #fff;
      }
    </style>
  </defs>
  <circle class="cls-1" cx="20.59" cy="20.59" r="20.59"/>
  <g>
    <path class="cls-2" d="m5.02,23.16c.67.4,1.16.69,1.47.86-.41.57-1.13,1.75-2.17,3.52-.21.34-.34.54-.39.6-.52-.29-1.01-.54-1.47-.77,1.19-1.78,2.04-3.18,2.55-4.21Zm4.56-8.59c1.03.4,1.6.72,1.7.95,0,.06-.05.14-.16.26-.15.12-.28.23-.39.34-.26.29-.57.8-.93,1.55h.46c1.03.06,1.78,0,2.24-.17v1.72c-.21-.06-.46-.09-.77-.09-.21-.06-.7-.09-1.47-.09h-1.55v2.15h1.32c1.03.06,1.75,0,2.17-.17v1.63c-.21-.06-.44-.09-.7-.09-.26-.06-.75-.09-1.47-.09h-1.32v5.33c.26.92-.75,1.55-3.02,1.89-.1-1.09-.31-1.83-.62-2.23,1.65.29,2.35-.06,2.09-1.03v-3.95h-1.86c-.67,0-1.13.03-1.39.09-.31,0-.57.03-.77.09v-1.63c.51.12,1.24.17,2.17.17h1.86v-2.15h-1.86c-1.13.06-1.96.12-2.47.17v-1.72c.62.17,1.42.23,2.4.17h3.33c.51-1.49.85-2.52,1-3.09Zm-.77-4.12c.21.86.36,1.6.46,2.23h.7c.93.06,1.7,0,2.32-.17v1.89c-.36-.17-1.13-.26-2.32-.26h-4.1c-1.03,0-1.81.09-2.32.26v-1.89c.62.17,1.37.23,2.24.17h1.86c-.21-.74-.44-1.35-.7-1.8l1.86-.43Zm-2.63,4.12c.41.75.77,1.49,1.08,2.23l-1.62.6c-.21-.74-.49-1.46-.85-2.15l1.39-.69Zm4.1,8.94c.82,1.2,1.39,2.09,1.7,2.66l-1.32,1.03c-.41-1.09-.98-2.03-1.7-2.84l1.31-.86Zm9.13-12.46c.77,1.15,1.16,1.83,1.16,2.06-.05.06-.23.09-.54.09-.46-.06-.88-.06-1.24,0-.31.12-.9.2-1.78.26-.67.06-1.39.14-2.17.26v3.87h3.94c.77.06,1.39,0,1.86-.17v1.89c-.52-.11-1.16-.17-1.93-.17h-.39v8.34c-.05.97,0,1.8.15,2.49h-1.7v-.17c.1-.75.15-1.55.15-2.41v-8.25h-2.09c-.21,4.98-1.06,8.59-2.55,10.83-.67-.46-1.29-.72-1.86-.77,2.01-1.89,2.99-5.38,2.94-10.48v-3.52c-.05-1.03-.1-1.78-.15-2.23v-.69c2.58-.06,4.64-.46,6.19-1.2Z"/>
    <path class="cls-2" d="m24.08,16.97c-.1.29-.16.69-.16,1.2-.05.69-.08,1.26-.08,1.72v5.67c.72-.8,1.34-1.55,1.86-2.23.1.69.31,1.26.62,1.72-1.03,1.09-2.14,2.32-3.33,3.7-.36-.52-.72-1-1.08-1.46.31-.29.46-.97.46-2.06v-6.62c-1.08.06-1.86.12-2.32.17v-1.89c.72.23,1.37.32,1.93.26.72,0,1.42-.06,2.09-.17Zm-1.08-6.02c.15.23.59,1.06,1.31,2.49.16.34.36.72.62,1.12l-1.62.77c-.72-1.89-1.32-3.09-1.78-3.61l1.47-.77Zm5.18-.69c1.39.46,2.04.72,1.93.77-.05.12-.13.26-.23.43-.31.52-.65,1.15-1.01,1.89h6.81c.93,0,1.67-.09,2.24-.26v1.72h-.62c-.46-.06-1.03-.11-1.7-.17h-2.09v1.89h1.16c.98,0,1.78-.06,2.4-.17v1.63c-.36-.06-1.13-.09-2.32-.09h-1.24v1.89h1.62c.46,0,1.11-.09,1.93-.26v1.72c-.83-.06-1.44-.11-1.86-.17h-1.7v2.06h1.86c.82,0,1.62-.06,2.4-.17v1.63c-.88-.06-1.62-.11-2.24-.17h-6.57l.08,1.03h-1.7c.05-.86.1-1.75.16-2.66v-6.45c-.46.97-1.01,1.95-1.62,2.92-.46-.46-.98-.77-1.55-.95,2.01-2.06,3.3-4.75,3.87-8.08Zm-1.24,15.64c1.08.34,1.6.52,1.55.52-.05.06-.1.14-.15.26-.16.23-.23.37-.23.43-.1.23-.21.43-.31.6-.52,1.32-.88,2.15-1.08,2.49-.62-.29-1.19-.46-1.7-.52.82-.92,1.47-2.18,1.93-3.78Zm5.18-11.26h-3.25v1.89h3.25v-1.89Zm-3.25,3.27v1.89h3.25v-1.89h-3.25Zm3.25,3.18h-3.25v2.06h3.25v-2.06Zm-2.79,4.98l1.47.09c.16.97.26,2.06.31,3.27h-1.55c.1-.8.03-1.92-.23-3.35Zm3.87-15.81c.46.92.8,1.69,1.01,2.32l-1.55.52c-.26-.74-.62-1.52-1.08-2.32l1.62-.52Zm.46,15.73c.26,1.09.49,2.23.7,3.44h-1.62c0-.92-.15-2.06-.46-3.44h1.39Zm2.94-.6c.62,1.2,1.21,2.52,1.78,3.95l-1.7.52c-.31-1.2-.83-2.55-1.55-4.04l1.47-.43Z"/>
  </g>
</svg>