<?xml version="1.0" encoding="UTF-8"?>
<svg id="logo" xmlns="http://www.w3.org/2000/svg" viewBox="0 0 55.28 41.19">
  <g>
    <path d="m8.02,26.77h-2.13v-13.97c-1.3,1.52-2.74,2.98-4.32,4.39-.38-.63-.81-1.29-1.3-1.97,3.47-2.91,6.19-6.13,8.14-9.66H1.03v-2h8.4c.51-1.12.95-2.28,1.32-3.46l2.24.51c-.36,1-.76,1.98-1.19,2.94h15.25v2H10.83c-.56,1.06-1.17,2.1-1.84,3.1h14.79v14.41c0,2.23-1.09,3.35-3.27,3.35-.95.02-2.4.03-4.35.03-.09-.61-.22-1.35-.41-2.21,1.66.13,2.99.19,4,.19,1.24,0,1.86-.61,1.86-1.84v-1.92h-13.61v6.1Zm13.61-16.22h-13.61v3.21h13.61v-3.21Zm-13.61,8.29h13.61v-3.24h-13.61v3.24Z"/>
    <path d="m31.2,12.74h2.92v-5.05h2.05v5.05h3.1v2h-3.1v3.48c1.01-.2,2.04-.41,3.1-.62-.04.83-.05,1.52-.05,2.08-.99.18-2.01.37-3.05.57v6.72h-2.05v-6.32c-1.82.36-3.72.75-5.7,1.16l-.46-2.16c1.96-.29,4.01-.63,6.16-1.03v-3.89h-5.18v-1.7c.77-2.23,1.51-4.62,2.21-7.18h-2.81v-1.89h3.29c.31-1.21.61-2.45.92-3.73l2.19.43c-.31,1.13-.6,2.23-.89,3.29h5.34v1.89h-5.88c-.72,2.5-1.42,4.8-2.11,6.88Zm8.1-6.48h3.05V.35h2.11v5.91h6.13v16.66c0,.7.23,1.05.7,1.05h.35c.5,0,.82-.5.94-1.51.16-1.17.3-2.79.41-4.86.61.31,1.26.56,1.94.76-.11,1.57-.27,3.13-.49,4.7-.29,1.98-1.13,2.97-2.54,2.97h-1.24c-1.42,0-2.13-.95-2.13-2.86v-14.9h-4.08c-.04,5.29-.31,9.05-.81,11.28-.58,2.81-1.78,5.33-3.62,7.56-.52-.63-1.11-1.21-1.75-1.73,1.67-1.73,2.8-3.98,3.38-6.75.43-1.83.67-5.29.7-10.37h-3.05v-2Z"/>
  </g>
  <g>
    <path d="m5.76,39.84h-1.01l-1.45-4.27c-.03-.1-.08-.29-.15-.59h-.02s-.06.24-.15.59l-1.49,4.26H.47l2.15-5.7-1.98-5.65h1.02l1.28,3.93c.08.23.15.5.23.81h.02c.07-.26.15-.54.25-.84l1.34-3.89h.96l-2.02,5.62,2.05,5.72Z"/>
    <path d="m7.55,28.49v11.35h-.84v-11.35h.84Z"/>
    <path d="m14.51,39.84h-.99l-3.25-8.83c-.09-.25-.17-.5-.22-.74h-.03c.02.25.03.78.03,1.59v7.98h-.83v-11.35h1.05l3.17,8.67c.15.41.24.67.27.78h.02c-.03-.32-.04-.87-.04-1.66v-7.8h.83v11.35Z"/>
    <path d="m15.77,34.3c0-1.83.28-3.29.85-4.37s1.33-1.62,2.3-1.62c.9,0,1.62.53,2.17,1.59s.82,2.44.82,4.14c0,1.84-.28,3.3-.84,4.38-.13.25-.28.48-.43.67l1.82,2.29h-1.37l-1.23-1.6c-.32.17-.66.26-1.04.26-.92,0-1.66-.53-2.21-1.59-.55-1.06-.83-2.44-.83-4.14Zm.88-.12c0,1.37.2,2.47.6,3.3.4.83.92,1.24,1.56,1.24.69,0,1.23-.4,1.63-1.19.39-.79.59-1.9.59-3.33s-.19-2.59-.58-3.39c-.39-.8-.92-1.19-1.59-1.19s-1.19.42-1.6,1.26-.61,1.94-.61,3.3Z"/>
    <path d="m23.99,28.49v11.35h-.84v-11.35h.84Z"/>
    <path d="m30.76,39.84h-.92l-.66-3.11h-2.69l-.62,3.11h-.92l2.46-11.35h.89l2.46,11.35Zm-1.84-4.39l-.98-4.72c-.03-.15-.06-.42-.1-.79h-.02c-.03.34-.07.61-.1.79l-.97,4.72h2.17Z"/>
    <path d="m31.15,34.3c0-1.83.28-3.29.85-4.37s1.33-1.62,2.3-1.62c.9,0,1.62.53,2.17,1.59s.82,2.44.82,4.14c0,1.84-.28,3.3-.84,4.38s-1.31,1.62-2.25,1.62-1.66-.53-2.21-1.59c-.55-1.06-.83-2.44-.83-4.14Zm.88-.12c0,1.37.2,2.47.6,3.3.4.83.92,1.24,1.56,1.24.69,0,1.23-.4,1.63-1.19.39-.79.59-1.9.59-3.33s-.19-2.59-.58-3.39c-.39-.8-.92-1.19-1.59-1.19s-1.19.42-1.6,1.26-.61,1.94-.61,3.3Z"/>
    <path d="m44.49,39.84h-3.41v-11.35h.84v10.05h2.58v1.3Z"/>
    <path d="m50.19,39.84h-.99l-1.07-3.15c-.21-.63-.41-1.06-.59-1.29-.18-.23-.39-.34-.64-.34h-.6v4.78h-.84v-11.35h1.97c.63,0,1.12.27,1.48.8s.53,1.28.53,2.23c0,1.57-.48,2.59-1.44,3.06v.04c.18.13.33.32.46.56.13.24.3.66.5,1.25l1.21,3.4Zm-3.89-10.06v4.01h.99c.38,0,.69-.2.93-.59s.36-.9.36-1.54c0-.59-.11-1.05-.33-1.38-.22-.33-.53-.5-.95-.5h-1Z"/>
    <path d="m54.72,29.79h-1.87v10.04h-.84v-10.04h-1.86v-1.3h4.57v1.3Z"/>
  </g>
</svg>